<svg width="32" height="32" viewBox="0 0 32 32" version="1.1" xmlns="http://www.w3.org/2000/svg" xmlns:xlink="http://www.w3.org/1999/xlink">
<title>Group.svg</title>
<desc>Created using Figma</desc>
<g id="Canvas" transform="translate(-19866 -30835)">
<g id="Group">
<g id="Rectangle 42">
<use xlink:href="#path0_fill" transform="translate(19866 30835)" fill="#FFFFFF"/>
<mask id="mask0_outline_ins">
<use xlink:href="#path0_fill" fill="white" transform="translate(19866 30835)"/>
</mask>
<g mask="url(#mask0_outline_ins)">
<use xlink:href="#path1_stroke_2x" transform="translate(19866 30835)" fill="#EA3C23"/>
</g>
</g>
<g id="science robot 2.2.3.1">
<g id="Filled Icons">
<g id="Group">
<g id="Vector">
<use xlink:href="#path2_fill" transform="translate(19874.9 30841.2)" fill="#EA3C23"/>
</g>
<g id="Vector">
<use xlink:href="#path3_fill" transform="translate(19880.2 30851)" fill="#EA3C23"/>
</g>
<g id="Vector">
<use xlink:href="#path3_fill" transform="translate(19880.2 30852.8)" fill="#EA3C23"/>
</g>
<g id="Vector">
<use xlink:href="#path4_fill" transform="translate(19871.3 30849.2)" fill="#EA3C23"/>
</g>
</g>
</g>
</g>
</g>
</g>
<defs>
<path id="path0_fill" d="M 0 16C 0 7.16344 7.16344 0 16 0C 24.8366 0 32 7.16344 32 16C 32 24.8366 24.8366 32 16 32C 7.16344 32 0 24.8366 0 16Z"/>
<path id="path1_stroke_2x" d="M 16 -1C 6.61116 -1 -1 6.61116 -1 16L 1 16C 1 7.71573 7.71573 1 16 1L 16 -1ZM 16 1C 24.2843 1 31 7.71573 31 16L 33 16C 33 6.61116 25.3888 -1 16 -1L 16 1ZM 31 16C 31 24.2843 24.2843 31 16 31L 16 33C 25.3888 33 33 25.3888 33 16L 31 16ZM 16 31C 7.71573 31 1 24.2843 1 16L -1 16C -1 25.3888 6.61116 33 16 33L 16 31Z"/>
<path id="path2_fill" d="M 1.77778 8.88889L 12.4444 8.88889C 13.4249 8.88889 14.2222 8.09067 14.2222 7.11111L 14.2222 1.77778C 14.2222 0.798222 13.4249 0 12.4444 0L 1.77778 0C 0.798222 0 0 0.798222 0 1.77778L 0 7.11111C 0 8.09067 0.798222 8.88889 1.77778 8.88889ZM 10.6667 3.11111C 11.4027 3.11111 12 3.70844 12 4.44444C 12 5.18044 11.4027 5.77778 10.6667 5.77778C 9.93067 5.77778 9.33333 5.18044 9.33333 4.44444C 9.33333 3.70844 9.93067 3.11111 10.6667 3.11111ZM 3.55556 3.11111C 4.29156 3.11111 4.88889 3.70844 4.88889 4.44444C 4.88889 5.18044 4.29156 5.77778 3.55556 5.77778C 2.81956 5.77778 2.22222 5.18044 2.22222 4.44444C 2.22222 3.70844 2.81956 3.11111 3.55556 3.11111Z"/>
<path id="path3_fill" d="M 3.11111 0L 0.444444 0C 0.199111 0 0 0.199111 0 0.444444C 0 0.689778 0.199111 0.888889 0.444444 0.888889L 3.11111 0.888889C 3.35644 0.888889 3.55556 0.689778 3.55556 0.444444C 3.55556 0.199111 3.35644 0 3.11111 0Z"/>
<path id="path4_fill" d="M 21.3333 1.78069C 21.3333 1.19758 21.1484 0.643802 20.7982 0.178024C 20.6507 -0.0193089 20.3707 -0.05842 20.176 0.0900245C 19.9796 0.23758 19.9404 0.515803 20.088 0.712247C 20.3209 1.02158 20.4444 1.39225 20.4444 1.78069C 20.4444 2.76025 19.6471 3.55847 18.6667 3.55847C 18.1022 3.55847 17.584 3.2998 17.2444 2.84825C 17.0978 2.65091 16.8178 2.61091 16.6222 2.76025C 16.4258 2.9078 16.3867 3.18602 16.5342 3.38247C 17.0436 4.0598 17.8204 4.44736 18.6667 4.44736C 18.8444 4.44736 19.0187 4.42869 19.1876 4.39402L 19.5058 5.82514L 17.4293 7.45714L 17.7689 5.87314C 17.7964 5.74247 17.7636 5.60469 17.6791 5.50069C 17.5947 5.39669 17.4676 5.33625 17.3333 5.33625L 4 5.33625C 3.86578 5.33625 3.73867 5.39669 3.65422 5.50069C 3.56978 5.60469 3.53689 5.74247 3.56444 5.87314L 3.904 7.45714L 1.82756 5.82514L 2.14489 4.39402C 2.31556 4.42869 2.48889 4.44736 2.66667 4.44736C 3.51289 4.44736 4.28978 4.0598 4.79822 3.38336C 4.94578 3.18691 4.90667 2.90869 4.71022 2.76114C 4.51556 2.61358 4.23556 2.65091 4.088 2.84914C 3.74933 3.2998 3.23111 3.55847 2.66667 3.55847C 1.68711 3.55847 0.888889 2.76025 0.888889 1.78069C 0.888889 1.39136 1.01244 1.02158 1.24444 0.713136C 1.392 0.516691 1.35289 0.238469 1.15644 0.0909137C 0.961778 -0.0575307 0.681778 -0.0184196 0.534222 0.178914C 0.184889 0.643803 0 1.19758 0 1.78069C 0 2.75402 0.528889 3.59758 1.30933 4.06247L 0.899556 5.90603C 0.862222 6.07314 0.924444 6.24647 1.05956 6.35225L 4.17067 8.79669L 4.18756 8.77536L 4.89956 12.0954C 4.94311 12.3007 5.12444 12.4474 5.33333 12.4474L 16 12.4474C 16.2089 12.4474 16.3911 12.3007 16.4347 12.0954L 17.1467 8.77536L 17.1636 8.79669L 20.2747 6.35225C 20.4089 6.24647 20.472 6.07225 20.4347 5.90603L 20.0249 4.06247C 20.8044 3.59758 21.3333 2.75402 21.3333 1.78069ZM 14.2222 11.5585L 7.11111 11.5585L 7.11111 8.8918L 14.2222 8.8918L 14.2222 11.5585Z"/>
</defs>
</svg>
