<?xml version="1.0" encoding="UTF-8"?>
<svg width="343px" height="39px" viewBox="0 0 343 39" version="1.1" xmlns="http://www.w3.org/2000/svg" xmlns:xlink="http://www.w3.org/1999/xlink">
    <!-- Generator: Sketch 47.1 (45422) - http://www.bohemiancoding.com/sketch -->
    <title>nerdgeschoss_black</title>
    <desc>Created with Sketch.</desc>
    <defs></defs>
    <g id="Page-1" stroke="none" stroke-width="1" fill="none" fill-rule="evenodd">
        <g id="nerdgeschoss_black" fill="#1A1919">
            <path d="M337.88,23.153 C337.656,23.183 332.462,24.061 330.892,30.346 C330.822,30.605 330.867,30.87 331.004,31.1 C331.139,31.327 331.356,31.489 331.615,31.555 C331.693,31.573 331.775,31.582 331.855,31.582 C332.315,31.582 332.715,31.272 332.828,30.832 C334.072,25.846 338.017,25.147 338.185,25.122 C338.729,25.037 339.099,24.524 339.016,23.983 C338.937,23.445 338.455,23.066 337.88,23.153" id="Fill-1"></path>
            <g id="Group-5" transform="translate(308.000000, 0.000000)">
                <path d="M13.596,18.735 L13.645,18.627 C13.698,18.507 13.721,18.382 13.721,18.264 C13.721,17.76 13.352,17.349 12.808,17.277 L12.643,17.274 C11.221,17.262 10.108,16.841 9.342,16.026 C7.86,14.463 7.963,11.927 7.967,11.818 C8.002,11.271 7.579,10.796 6.98,10.765 C6.447,10.765 6.01,11.181 5.979,11.702 C5.971,11.844 5.786,15.163 7.881,17.387 C8.773,18.335 9.93,18.934 11.33,19.164 C11.071,20.314 10.872,22.847 13.379,24.748 C13.552,24.882 13.761,24.951 13.979,24.951 C14.299,24.951 14.587,24.807 14.777,24.555 C14.94,24.347 15.007,24.082 14.969,23.816 C14.933,23.553 14.798,23.32 14.587,23.156 C12.216,21.361 13.526,18.859 13.596,18.735" id="Fill-2"></path>
                <path d="M31.477,27.979 C30.132,31.155 26.754,32.495 26.723,32.511 L26.244,32.687 L25.947,33.107 C24.143,35.654 22.26,37.004 20.509,37.004 C19.631,37.004 18.916,36.664 18.496,36.405 L18.496,2.596 C18.757,2.436 19.145,2.249 19.607,2.128 C19.883,2.052 20.181,1.997 20.505,1.999 C22.974,2.02 24.814,4.324 25.142,4.768 C25.838,5.729 25.977,6.593 25.99,6.673 L26.11,7.655 L27.029,8.018 C29.249,8.892 30.723,10.202 31.402,11.918 C32.597,14.896 31.19,18.349 30.981,18.835 C28.54,18.686 27.519,17.68 27.178,17.217 C28.757,11.848 24.822,8.708 24.777,8.677 C24.358,8.349 23.702,8.431 23.378,8.849 C23.215,9.055 23.146,9.319 23.173,9.584 C23.208,9.849 23.341,10.083 23.548,10.247 C23.677,10.354 26.719,12.843 25.098,17.188 C24.99,17.415 24.333,18.603 22.067,19.925 C21.599,20.205 21.438,20.818 21.714,21.291 C21.982,21.75 22.629,21.917 23.081,21.648 C24.675,20.714 25.643,19.785 26.21,19.089 C27.095,19.891 28.622,20.744 31.157,20.835 C32.22,23.568 32.324,25.968 31.477,27.979 Z M14.463,37.004 C12.813,37.004 11.041,35.793 9.32,33.502 C13.143,29.862 10.515,24.816 10.484,24.769 C10.236,24.299 9.619,24.098 9.139,24.347 C8.653,24.605 8.467,25.207 8.721,25.694 C8.804,25.854 10.741,29.65 7.706,32.261 C6.66,31.734 4.532,30.415 3.505,28.002 C2.579,25.837 2.762,23.231 4.04,20.261 L4.336,19.574 L4.018,18.891 C3.998,18.854 2.287,15.146 3.559,11.93 C4.24,10.211 5.717,8.895 7.946,8.018 L8.531,7.775 C11.411,7.567 12.497,10.047 12.535,10.148 C12.746,10.642 13.352,10.89 13.844,10.682 C14.085,10.58 14.276,10.39 14.381,10.142 C14.483,9.897 14.483,9.625 14.377,9.379 C13.844,8.094 12.179,5.958 9.265,5.777 C9.393,5.479 9.578,5.13 9.843,4.768 C10.148,4.345 11.885,2.02 14.457,1.999 C14.784,1.997 15.087,2.052 15.368,2.128 C15.807,2.247 16.186,2.424 16.471,2.6 L16.474,36.405 C16.008,36.699 15.311,37.004 14.463,37.004 Z M32.823,19.609 C33.17,18.811 34.723,14.874 33.261,11.198 C32.392,8.987 30.595,7.319 27.935,6.228 C27.873,5.958 27.728,5.415 27.417,4.768 C27.284,4.501 27.133,4.214 26.939,3.916 C26.396,3.225 25.838,2.626 25.275,2.115 C23.731,0.72 22.134,0.003 20.505,0.003 C20.093,0.003 19.709,0.053 19.349,0.128 C18.585,0.291 17.953,0.592 17.482,0.876 C17.012,0.592 16.377,0.295 15.616,0.135 C15.257,0.053 14.872,0.003 14.457,0.003 C12.794,0.003 11.18,0.742 9.619,2.178 C9.134,2.622 8.648,3.131 8.178,3.713 C7.919,4.083 7.71,4.439 7.554,4.768 C7.248,5.415 7.097,5.958 7.035,6.228 C4.377,7.319 2.583,8.987 1.709,11.198 C0.249,14.874 1.803,18.811 2.149,19.609 C0.697,23.045 0.537,26.133 1.671,28.781 C3.252,32.487 6.804,34.077 7.448,34.341 C9.665,37.435 12.022,39 14.463,39 C15.754,39 16.793,38.548 17.482,38.127 C18.177,38.548 19.218,39 20.509,39 C22.95,39 25.311,37.435 27.519,34.341 C28.169,34.077 31.721,32.487 33.303,28.781 C34.438,26.133 34.276,23.045 32.823,19.609 L32.823,19.609 Z" id="Fill-4"></path>
            </g>
            <path d="M0,10.966 C0,10.056 0.735,9.273 1.649,9.273 C2.604,9.273 3.344,10.012 3.344,10.966 L3.344,13.398 C4.819,10.966 7.165,9.013 11.03,9.013 C16.459,9.013 19.63,12.66 19.63,18.002 L19.63,30.468 C19.63,31.424 18.893,32.164 17.979,32.164 C17.023,32.164 16.287,31.424 16.287,30.468 L16.287,18.83 C16.287,14.657 14.028,12.052 10.075,12.052 C6.21,12.052 3.344,14.875 3.344,19.089 L3.344,30.468 C3.344,31.424 2.647,32.164 1.692,32.164 C0.735,32.164 0,31.424 0,30.468 L0,10.966" id="Fill-6"></path>
            <path d="M43.549,19.481 C43.115,15.093 40.16,11.835 36.252,11.835 C31.777,11.835 29.431,15.396 29.085,19.481 L43.549,19.481 Z M27.261,29.079 C26.914,28.773 26.739,28.384 26.739,27.993 C26.739,27.212 27.39,26.56 28.216,26.56 C28.607,26.56 28.91,26.732 29.173,26.948 C30.822,28.47 32.863,29.556 35.643,29.556 C39.64,29.556 43.071,26.82 43.549,21.953 L27.304,21.953 C26.479,21.953 25.741,21.303 25.741,20.391 C25.741,14.442 29.519,9.013 36.164,9.013 C42.375,9.013 46.937,14.223 46.937,20.696 L46.937,20.783 C46.937,27.733 41.898,32.466 35.73,32.466 C31.909,32.466 29.388,31.122 27.261,29.079 L27.261,29.079 Z" id="Fill-7"></path>
            <path d="M52.477,10.966 C52.477,10.056 53.215,9.273 54.127,9.273 C55.081,9.273 55.821,10.012 55.821,10.966 L55.821,15.18 C57.472,11.443 60.728,9.185 63.553,9.185 C64.551,9.185 65.201,9.926 65.201,10.877 C65.201,11.792 64.593,12.443 63.728,12.574 C59.383,13.094 55.821,16.351 55.821,22.825 L55.821,30.468 C55.821,31.379 55.125,32.164 54.17,32.164 C53.215,32.164 52.477,31.424 52.477,30.468 L52.477,10.966" id="Fill-8"></path>
            <path d="M71.564,20.652 L71.564,20.738 C71.564,26.04 75.257,29.426 79.47,29.426 C83.64,29.426 87.591,25.909 87.591,20.738 L87.591,20.652 C87.591,15.485 83.64,12.009 79.47,12.009 C75.128,12.009 71.564,15.223 71.564,20.652 Z M90.807,30.468 C90.807,31.424 90.068,32.164 89.156,32.164 C88.2,32.164 87.462,31.424 87.462,30.468 L87.462,27.427 C85.638,30.12 82.989,32.423 78.863,32.423 C73.479,32.423 68.133,28.167 68.133,20.783 L68.133,20.696 C68.133,13.357 73.479,9.013 78.863,9.013 C83.032,9.013 85.726,11.271 87.462,13.789 L87.462,1.715 C87.462,0.759 88.156,0.022 89.113,0.022 C90.068,0.022 90.807,0.759 90.807,1.715 L90.807,30.468 L90.807,30.468 Z" id="Fill-9"></path>
            <path d="M116.159,19.653 L116.159,19.567 C116.159,14.963 112.165,11.963 107.905,11.963 C103.65,11.963 100.13,14.921 100.13,19.522 L100.13,19.609 C100.13,24.126 103.738,27.255 107.905,27.255 C112.165,27.255 116.159,24.17 116.159,19.653 Z M98.569,36.333 C98.047,36.072 97.7,35.551 97.7,34.943 C97.7,34.202 98.438,33.466 99.222,33.466 C99.523,33.466 99.741,33.553 99.958,33.682 C102.303,35.245 104.998,36.114 107.905,36.114 C112.857,36.114 116.073,33.38 116.073,28.122 L116.073,25.473 C114.118,28.08 111.382,30.205 107.255,30.205 C101.87,30.205 96.701,26.168 96.701,19.695 L96.701,19.609 C96.701,13.049 101.913,9.013 107.255,9.013 C111.47,9.013 114.204,11.098 116.029,13.529 L116.029,10.966 C116.029,10.056 116.724,9.273 117.68,9.273 C118.635,9.273 119.375,10.056 119.375,10.966 L119.375,28.035 C119.375,31.511 118.332,34.158 116.508,35.986 C114.508,37.983 111.513,38.981 107.949,38.981 C104.519,38.981 101.392,38.068 98.569,36.333 L98.569,36.333 Z" id="Fill-10"></path>
            <path d="M143.542,19.481 C143.197,15.396 140.85,11.835 136.376,11.835 C132.468,11.835 129.513,15.093 129.078,19.481 L143.542,19.481 Z M136.898,32.466 C130.729,32.466 125.691,27.733 125.691,20.783 L125.691,20.696 C125.691,14.223 130.253,9.013 136.463,9.013 C143.109,9.013 146.886,14.442 146.886,20.391 C146.886,21.303 146.148,21.953 145.324,21.953 L129.078,21.953 C129.557,26.82 132.987,29.556 136.984,29.556 C139.764,29.556 141.805,28.47 143.456,26.948 C143.718,26.732 144.02,26.56 144.413,26.56 C145.238,26.56 145.888,27.212 145.888,27.993 C145.888,28.384 145.713,28.773 145.367,29.079 C143.24,31.122 140.719,32.466 136.898,32.466 L136.898,32.466 Z" id="Fill-11"></path>
            <path d="M151.503,29.556 C151.197,29.34 150.896,28.907 150.896,28.34 C150.896,27.557 151.546,26.906 152.369,26.906 C152.676,26.906 152.979,26.993 153.196,27.169 C155.498,28.731 157.885,29.556 160.32,29.556 C163.012,29.556 164.967,28.167 164.967,25.995 L164.967,25.909 C164.967,23.647 162.316,22.781 159.364,21.953 C155.846,20.955 151.937,19.739 151.937,15.614 L151.937,15.527 C151.937,11.663 155.149,9.099 159.579,9.099 C161.969,9.099 164.574,9.837 166.747,11.01 C167.182,11.271 167.573,11.749 167.573,12.399 C167.573,13.18 166.921,13.834 166.096,13.834 C165.791,13.834 165.531,13.747 165.359,13.658 C163.445,12.574 161.404,11.921 159.493,11.921 C156.845,11.921 155.149,13.312 155.149,15.18 L155.149,15.265 C155.149,17.393 157.929,18.221 160.929,19.131 C164.402,20.173 168.139,21.52 168.139,25.561 L168.139,25.647 C168.139,29.903 164.619,32.379 160.144,32.379 C157.192,32.379 153.934,31.292 151.503,29.556" id="Fill-12"></path>
            <path d="M172.813,20.824 L172.813,20.738 C172.813,14.399 177.765,9.013 184.323,9.013 C188.06,9.013 190.578,10.445 192.575,12.27 C192.835,12.486 193.096,12.92 193.096,13.442 C193.096,14.354 192.356,15.049 191.488,15.049 C191.054,15.049 190.662,14.875 190.403,14.657 C188.796,13.18 186.972,11.963 184.278,11.963 C179.721,11.963 176.245,15.83 176.245,20.652 L176.245,20.738 C176.245,25.605 179.807,29.471 184.497,29.471 C187.059,29.471 189.102,28.297 190.752,26.732 C190.968,26.515 191.271,26.298 191.708,26.298 C192.53,26.298 193.226,27.038 193.226,27.82 C193.226,28.209 193.055,28.599 192.793,28.862 C190.662,30.99 188.101,32.466 184.323,32.466 C177.765,32.466 172.813,27.123 172.813,20.824" id="Fill-13"></path>
            <path d="M199.008,1.715 C199.008,0.802 199.746,0.022 200.659,0.022 C201.615,0.022 202.355,0.802 202.355,1.715 L202.355,13.398 C203.83,10.966 206.174,9.013 210.04,9.013 C215.469,9.013 218.64,12.66 218.64,18.002 L218.64,30.468 C218.64,31.424 217.902,32.164 216.987,32.164 C216.033,32.164 215.296,31.424 215.296,30.468 L215.296,18.83 C215.296,14.657 213.038,12.052 209.085,12.052 C205.22,12.052 202.355,14.875 202.355,19.089 L202.355,30.468 C202.355,31.424 201.657,32.164 200.704,32.164 C199.746,32.164 199.008,31.424 199.008,30.468 L199.008,1.715" id="Fill-14"></path>
            <path d="M244.358,20.824 L244.358,20.738 C244.358,15.918 240.754,11.963 236.02,11.963 C231.157,11.963 227.81,15.918 227.81,20.652 L227.81,20.738 C227.81,25.561 231.37,29.471 236.106,29.471 C240.968,29.471 244.358,25.561 244.358,20.824 Z M224.378,20.824 L224.378,20.738 C224.378,14.399 229.331,9.013 236.106,9.013 C242.838,9.013 247.787,14.311 247.787,20.652 L247.787,20.738 C247.787,27.081 242.793,32.466 236.02,32.466 C229.284,32.466 224.378,27.169 224.378,20.824 L224.378,20.824 Z" id="Fill-15"></path>
            <path d="M252.615,29.556 C252.312,29.34 252.008,28.907 252.008,28.34 C252.008,27.557 252.659,26.906 253.484,26.906 C253.791,26.906 254.092,26.993 254.311,27.169 C256.611,28.731 259,29.556 261.433,29.556 C264.126,29.556 266.081,28.167 266.081,25.995 L266.081,25.909 C266.081,23.647 263.43,22.781 260.479,21.953 C256.958,20.955 253.051,19.739 253.051,15.614 L253.051,15.527 C253.051,11.663 256.263,9.099 260.693,9.099 C263.082,9.099 265.688,9.837 267.86,11.01 C268.297,11.271 268.687,11.749 268.687,12.399 C268.687,13.18 268.034,13.834 267.211,13.834 C266.904,13.834 266.646,13.747 266.473,13.658 C264.56,12.574 262.516,11.921 260.607,11.921 C257.959,11.921 256.263,13.312 256.263,15.18 L256.263,15.265 C256.263,17.393 259.044,18.221 262.042,19.131 C265.516,20.173 269.251,21.52 269.251,25.561 L269.251,25.647 C269.251,29.903 265.732,32.379 261.258,32.379 C258.307,32.379 255.049,31.292 252.615,29.556" id="Fill-16"></path>
            <path d="M273.817,29.556 C273.51,29.34 273.21,28.907 273.21,28.34 C273.21,27.557 273.861,26.906 274.684,26.906 C274.989,26.906 275.294,26.993 275.511,27.169 C277.813,28.731 280.201,29.556 282.634,29.556 C285.325,29.556 287.281,28.167 287.281,25.995 L287.281,25.909 C287.281,23.647 284.63,22.781 281.679,21.953 C278.158,20.955 274.25,19.739 274.25,15.614 L274.25,15.527 C274.25,11.663 277.463,9.099 281.894,9.099 C284.283,9.099 286.889,9.837 289.061,11.01 C289.495,11.271 289.888,11.749 289.888,12.399 C289.888,13.18 289.233,13.834 288.409,13.834 C288.107,13.834 287.846,13.747 287.674,13.658 C285.76,12.574 283.718,11.921 281.807,11.921 C279.159,11.921 277.463,13.312 277.463,15.18 L277.463,15.265 C277.463,17.393 280.243,18.221 283.242,19.131 C286.716,20.173 290.452,21.52 290.452,25.561 L290.452,25.647 C290.452,29.903 286.936,32.379 282.458,32.379 C279.505,32.379 276.247,31.292 273.817,29.556" id="Fill-17"></path>
        </g>
    </g>
</svg>