<svg width="20" height="20" viewBox="0 0 20 20" version="1.1" xmlns="http://www.w3.org/2000/svg" xmlns:xlink="http://www.w3.org/1999/xlink">
<title>icon-plus--small</title>
<desc>Created using Figma</desc>
<g id="Canvas" transform="translate(-4079 -24714)">
<g id="icon-plus--small">
<g id="Rectangle 34">
<use xlink:href="#path0_fill" transform="translate(4079 24714)" fill="#FFFFFF" fill-opacity="0.01"/>
</g>
<g id="Group">
<g id="Vector">
<use xlink:href="#path1_stroke" transform="translate(4081.5 24716.5)" fill="#909090"/>
</g>
<g id="Vector">
<use xlink:href="#path2_stroke" transform="translate(4089 24721)" fill="#909090"/>
</g>
<g id="Vector">
<use xlink:href="#path3_stroke" transform="translate(4086 24724)" fill="#909090"/>
</g>
</g>
</g>
</g>
<defs>
<path id="path0_fill" d="M 0 0L 20 0L 20 20L 0 20L 0 0Z"/>
<path id="path1_stroke" d="M 14 7.5C 14 11.0899 11.0899 14 7.5 14L 7.5 16C 12.1944 16 16 12.1944 16 7.5L 14 7.5ZM 7.5 14C 3.91015 14 1 11.0899 1 7.5L -1 7.5C -1 12.1944 2.80558 16 7.5 16L 7.5 14ZM 1 7.5C 1 3.91015 3.91015 1 7.5 1L 7.5 -1C 2.80558 -1 -1 2.80558 -1 7.5L 1 7.5ZM 7.5 1C 11.0899 1 14 3.91015 14 7.5L 16 7.5C 16 2.80558 12.1944 -1 7.5 -1L 7.5 1Z"/>
<path id="path2_stroke" d="M 1 0C 1 -0.552285 0.552285 -1 0 -1C -0.552285 -1 -1 -0.552285 -1 0L 1 0ZM -1 6C -1 6.55228 -0.552285 7 0 7C 0.552285 7 1 6.55228 1 6L -1 6ZM -1 0L -1 6L 1 6L 1 0L -1 0Z"/>
<path id="path3_stroke" d="M 0 -1C -0.552285 -1 -1 -0.552285 -1 0C -1 0.552285 -0.552285 1 0 1L 0 -1ZM 6 1C 6.55228 1 7 0.552285 7 0C 7 -0.552285 6.55228 -1 6 -1L 6 1ZM 0 1L 6 1L 6 -1L 0 -1L 0 1Z"/>
</defs>
</svg>
