<svg width="10" height="14" viewBox="0 0 10 14" version="1.1" xmlns="http://www.w3.org/2000/svg" xmlns:xlink="http://www.w3.org/1999/xlink" xmlns:figma="http://www.figma.com/figma/ns">
<title>arrow right 12.2.3.1</title>
<desc>Created using Figma</desc>
<g id="Canvas" transform="translate(-7884 -313)" figma:type="canvas">
<g id="arrow right 12.2.3.1" style="mix-blend-mode:normal;" figma:type="frame">
<g id="Filled Icons" style="mix-blend-mode:normal;" figma:type="frame">
<g id="Group" style="mix-blend-mode:normal;" figma:type="frame">
<g id="Vector" style="mix-blend-mode:normal;" figma:type="vector">
<use xlink:href="#path0_fill" transform="translate(7885.25 314)" fill="#000000" fill-opacity="0.87" style="mix-blend-mode:normal;"/>
<use xlink:href="#path1_stroke" transform="translate(7885.25 314)" fill="#000000" fill-opacity="0.87" style="mix-blend-mode:normal;"/>
</g>
</g>
</g>
</g>
</g>
<defs>
<path id="path0_fill" d="M 0.500363 11.9998C 0.358363 11.9998 0.217363 11.9398 0.118363 11.8228C -0.0601372 11.6123 -0.0336371 11.2968 0.176863 11.1183L 6.22586 6.00004L 0.176863 0.882243C -0.0336371 0.70325 -0.0601372 0.387763 0.118363 0.177271C 0.296363 -0.0342203 0.611863 -0.0597193 0.822863 0.118274L 7.32286 5.61806C 7.43536 5.71305 7.49986 5.85305 7.49986 6.00004C 7.49986 6.14703 7.43536 6.28653 7.32286 6.38202L 0.822863 11.8818C 0.728863 11.9608 0.613863 11.9998 0.500363 11.9998Z"/>
<path id="path1_stroke" d="M 0.118363 11.8228L 0.50005 11.4998L 0.499706 11.4994L 0.118363 11.8228ZM 0.176863 11.1183L -0.146105 10.7366L -0.146507 10.737L 0.176863 11.1183ZM 6.22586 6.00004L 6.54883 6.38174L 6.99996 6.00002L 6.54881 5.61833L 6.22586 6.00004ZM 0.176863 0.882243L -0.147034 1.26315L -0.146087 1.26395L 0.176863 0.882243ZM 0.118363 0.177271L 0.499708 0.500658L 0.500906 0.499235L 0.118363 0.177271ZM 0.822863 0.118274L 1.14583 -0.263426L 1.14526 -0.263906L 0.822863 0.118274ZM 7.32286 5.61806L 6.9999 5.99975L 7.00028 6.00008L 7.32286 5.61806ZM 7.32286 6.38202L 7.64583 6.76372L 7.64643 6.76321L 7.32286 6.38202ZM 0.822863 11.8818L 1.14455 12.2646L 1.14583 12.2635L 0.822863 11.8818ZM 0.500363 11.4998L 0.50005 11.4998L -0.263324 12.1458C -0.0651841 12.3799 0.217819 12.4998 0.500363 12.4998L 0.500363 11.4998ZM 0.499706 11.4994L 0.500232 11.4997L -0.146507 10.737C -0.566862 11.0934 -0.620736 11.7243 -0.26298 12.1462L 0.499706 11.4994ZM 0.499831 11.5L 6.54883 6.38174L 5.90289 5.61834L -0.146105 10.7366L 0.499831 11.5ZM 6.54881 5.61833L 0.499812 0.500532L -0.146087 1.26395L 5.90291 6.38175L 6.54881 5.61833ZM 0.500758 0.501334C 0.499819 0.500536 0.499966 0.500457 0.50017 0.500861C 0.500214 0.500949 0.500062 0.500659 0.500012 0.500065C 0.499963 0.499476 0.500082 0.499405 0.499922 0.499919C 0.499652 0.500784 0.499248 0.501195 0.499706 0.500656L -0.26298 -0.146113C -0.620956 0.276021 -0.56647 0.906495 -0.147033 1.26315L 0.500758 0.501334ZM 0.500906 0.499235C 0.501353 0.498704 0.50092 0.499273 0.499914 0.499783C 0.499244 0.500122 0.499095 0.500044 0.499516 0.500009C 0.499949 0.499973 0.500156 0.500054 0.500011 0.500009C 0.499534 0.49986 0.499558 0.499686 0.500468 0.500454L 1.14526 -0.263906C 0.724867 -0.618534 0.0933317 -0.569472 -0.26418 -0.144693L 0.500906 0.499235ZM 0.499899 0.499973L 6.9999 5.99975L 7.64583 5.23636L 1.14583 -0.263426L 0.499899 0.499973ZM 7.00028 6.00008L 6.99986 6.00004L 7.99986 6.00004C 7.99986 5.70686 7.87126 5.42672 7.64545 5.23603L 7.00028 6.00008ZM 6.99986 6.00004L 6.99929 6.00084L 7.64643 6.76321C 7.87073 6.57282 7.99986 6.29399 7.99986 6.00004L 6.99986 6.00004ZM 6.9999 6.00033L 0.499899 11.5001L 1.14583 12.2635L 7.64583 6.76372L 6.9999 6.00033ZM 0.501179 11.499C 0.499922 11.5001 0.499691 11.4998 0.500363 11.4998L 0.500363 12.4998C 0.695236 12.4931 0.974224 12.3965 1.14455 12.2646L 0.501179 11.499Z"/>
</defs>
</svg>
