<svg width="20" height="20" viewBox="0 0 20 20" version="1.1" xmlns="http://www.w3.org/2000/svg" xmlns:xlink="http://www.w3.org/1999/xlink">
<title>icon-arrow--small</title>
<desc>Created using Figma</desc>
<g id="Canvas" transform="translate(-673 -60143)">
<g id="icon-arrow--small">
<g id="Rectangle 92">
<use xlink:href="#path0_fill" transform="translate(673 60143)" fill="#FFFFFF" fill-opacity="0.01"/>
</g>
<g id="Vector">
<use xlink:href="#path1_stroke" transform="translate(675 60153)" fill="#909090"/>
</g>
<g id="Vector">
<use xlink:href="#path2_stroke" transform="translate(685 60147)" fill="#909090"/>
</g>
</g>
</g>
<defs>
<path id="path0_fill" d="M 0 0L 20 0L 20 20L 0 20L 0 0Z"/>
<path id="path1_stroke" d="M 0 -1C -0.552285 -1 -1 -0.552285 -1 0C -1 0.552285 -0.552285 1 0 1L 0 -1ZM 16 1C 16.5523 1 17 0.552285 17 0C 17 -0.552285 16.5523 -1 16 -1L 16 1ZM 0 1L 16 1L 16 -1L 0 -1L 0 1Z"/>
<path id="path2_stroke" d="M 0.707107 -0.707107C 0.316582 -1.09763 -0.316582 -1.09763 -0.707107 -0.707107C -1.09763 -0.316582 -1.09763 0.316582 -0.707107 0.707107L 0.707107 -0.707107ZM 6 6L 6.70711 6.70711C 7.09763 6.31658 7.09763 5.68342 6.70711 5.29289L 6 6ZM -0.707107 11.2929C -1.09763 11.6834 -1.09763 12.3166 -0.707107 12.7071C -0.316582 13.0976 0.316582 13.0976 0.707107 12.7071L -0.707107 11.2929ZM -0.707107 0.707107L 5.29289 6.70711L 6.70711 5.29289L 0.707107 -0.707107L -0.707107 0.707107ZM 5.29289 5.29289L -0.707107 11.2929L 0.707107 12.7071L 6.70711 6.70711L 5.29289 5.29289Z"/>
</defs>
</svg>
