<svg width="18" height="15" viewBox="0 0 18 15" version="1.1" xmlns="http://www.w3.org/2000/svg" xmlns:xlink="http://www.w3.org/1999/xlink" xmlns:figma="http://www.figma.com/figma/ns">
<title>burger</title>
<desc>Created using Figma</desc>
<g id="Canvas" transform="translate(-13681 -3895)" figma:type="canvas">
<g id="burger" style="mix-blend-mode:normal;" figma:type="frame">
<g id="Vector" style="mix-blend-mode:normal;" figma:type="vector">
<use xlink:href="#path0_fill" transform="translate(13681 3895.25)" fill="#000000" fill-opacity="0.87" style="mix-blend-mode:normal;"/>
</g>
<g id="Vector" style="mix-blend-mode:normal;" figma:type="vector">
<use xlink:href="#path1_fill" transform="translate(13681 3901.25)" fill="#000000" fill-opacity="0.87" style="mix-blend-mode:normal;"/>
</g>
<g id="Vector" style="mix-blend-mode:normal;" figma:type="vector">
<use xlink:href="#path1_fill" transform="translate(13681 3907.25)" fill="#000000" fill-opacity="0.87" style="mix-blend-mode:normal;"/>
</g>
</g>
</g>
<defs>
<path id="path0_fill" d="M 17.5 2.22045e-16L 0.5 2.22045e-16C 0.224 2.22045e-16 0 0.112 0 0.25L 0 1.75C 0 1.888 0.224 2 0.5 2L 17.5 2C 17.776 2 18 1.888 18 1.75L 18 0.25C 18 0.112 17.776 2.22045e-16 17.5 2.22045e-16Z"/>
<path id="path1_fill" d="M 17.5 0L 0.5 0C 0.224 0 0 0.112 0 0.25L 0 1.75C 0 1.888 0.224 2 0.5 2L 17.5 2C 17.776 2 18 1.888 18 1.75L 18 0.25C 18 0.112 17.776 0 17.5 0Z"/>
</defs>
</svg>
