<svg width="20" height="20" viewBox="0 0 20 20" version="1.1" xmlns="http://www.w3.org/2000/svg" xmlns:xlink="http://www.w3.org/1999/xlink">
<title>icon-calculator--small</title>
<desc>Created using Figma</desc>
<g id="Canvas" transform="translate(-4079 -24776)">
<g id="icon-calculator--small">
<g id="Filled Icon">
<g id="Group">
<g id="Vector">
<use xlink:href="#path0_fill" transform="translate(4083 24778)" fill="#909090"/>
</g>
<g id="Vector">
<use xlink:href="#path1_fill" transform="translate(4089.67 24784)" fill="#909090"/>
</g>
<g id="Vector">
<use xlink:href="#path2_fill" transform="translate(4083 24784)" fill="#909090"/>
</g>
<g id="Vector">
<use xlink:href="#path3_fill" transform="translate(4083 24788.7)" fill="#909090"/>
</g>
<g id="Vector">
<use xlink:href="#path4_fill" transform="translate(4089.67 24788.7)" fill="#909090"/>
</g>
</g>
</g>
<g id="Invisibla Shape">
<g id="Vector">
<use xlink:href="#path5_fill" transform="translate(4079 24776)" fill="#FFFFFF" fill-opacity="0.01"/>
</g>
</g>
</g>
</g>
<defs>
<path id="path0_fill" d="M 10.6667 3.71231e-07L 2 3.71231e-07C 0.897333 -0.000666295 0 0.896667 0 2L 0 5.33333L 12.6667 5.33333L 12.6667 2C 12.6667 0.896667 11.7693 -0.000666295 10.6667 3.71231e-07ZM 11.3333 3C 11.3333 3.512 10.916 4 10.4033 4L 2.26267 4C 1.75 4 1.33333 3.512 1.33333 3L 1.33333 2.26267C 1.33333 1.75067 1.75 1.33333 2.26267 1.33333L 10.4033 1.33333C 10.916 1.33333 11.3333 1.75067 11.3333 2.26267L 11.3333 3Z"/>
<path id="path1_fill" d="M 0 0L 0 4L 6 4L 6 0L 0 0ZM 3.66667 2.66667L 1.66667 2.66667C 1.48267 2.66667 1.33333 2.51733 1.33333 2.33333C 1.33333 2.14933 1.48267 2 1.66667 2L 3.66667 2C 3.85067 2 4 2.14933 4 2.33333C 4 2.51733 3.85067 2.66667 3.66667 2.66667Z"/>
<path id="path2_fill" d="M 0 0L 0 4L 6 4L 6 0L 0 0ZM 4 2.66667L 3.33333 2.66667L 3.33333 3.33333C 3.33333 3.51733 3.184 3.66667 3 3.66667C 2.816 3.66667 2.66667 3.51733 2.66667 3.33333L 2.66667 2.66667L 2 2.66667C 1.816 2.66667 1.66667 2.51733 1.66667 2.33333C 1.66667 2.14933 1.816 2 2 2L 2.66667 2L 2.66667 1.33333C 2.66667 1.14933 2.816 1 3 1C 3.184 1 3.33333 1.14933 3.33333 1.33333L 3.33333 2L 4 2C 4.184 2 4.33333 2.14933 4.33333 2.33333C 4.33333 2.51733 4.184 2.66667 4 2.66667Z"/>
<path id="path3_fill" d="M 0 0L 0 3.33333C 0 4.436 0.897333 5.33333 2 5.33333L 6 5.33333C 6 3.55333 6 1.776 6 0L 0 0ZM 4.236 3.09733C 4.366 3.22733 4.366 3.43867 4.236 3.56867C 4.106 3.69867 3.89467 3.69867 3.76467 3.56867L 3 2.804L 2.23533 3.56867C 2.10533 3.69867 1.894 3.69867 1.764 3.56867C 1.634 3.43867 1.634 3.22733 1.764 3.09733L 2.52867 2.33333L 1.764 1.56933C 1.634 1.43933 1.634 1.228 1.764 1.098C 1.894 0.968 2.10533 0.968 2.23533 1.098L 3 1.862L 3.76467 1.098C 3.89467 0.968 4.106 0.968 4.236 1.098C 4.366 1.228 4.366 1.43933 4.236 1.56933L 3.47133 2.33333L 4.236 3.09733Z"/>
<path id="path4_fill" d="M 0 0C 0 1.53067 0 3.412 0 5.33333L 4 5.33333C 5.10267 5.33333 6 4.436 6 3.33333L 6 0L 0 0ZM 3.66667 3.33333L 1.66667 3.33333C 1.48267 3.33333 1.33333 3.184 1.33333 3C 1.33333 2.816 1.48267 2.66667 1.66667 2.66667L 3.66667 2.66667C 3.85067 2.66667 4 2.816 4 3C 4 3.184 3.85067 3.33333 3.66667 3.33333ZM 3.66667 2L 1.66667 2C 1.48267 2 1.33333 1.85067 1.33333 1.66667C 1.33333 1.48267 1.48267 1.33333 1.66667 1.33333L 3.66667 1.33333C 3.85067 1.33333 4 1.48267 4 1.66667C 4 1.85067 3.85067 2 3.66667 2Z"/>
<path id="path5_fill" d="M 20 0L 0 0L 0 20L 20 20L 20 0Z"/>
</defs>
</svg>
