<svg width="16" height="16" viewBox="0 0 16 16" version="1.1" xmlns="http://www.w3.org/2000/svg" xmlns:xlink="http://www.w3.org/1999/xlink">
  <title>calendar 2.3.3.1</title>
  <desc>Created using Figma</desc>
  <g id="Canvas" transform="translate(-6338 -62376)">
    <g id="calendar 2.3.3.1">
      <g id="Filled Icons 1">
        <g id="Filled Icons">
          <g id="Group">
            <g id="Vector">
              <use xlink:href="#path0_fill" transform="translate(6346 62386.7)" fill="#BDBDBD"/>
            </g>
            <g id="Vector">
              <use xlink:href="#path0_fill" transform="translate(6342.67 62386.7)" fill="#BDBDBD"/>
            </g>
            <g id="Vector">
              <use xlink:href="#path0_fill" transform="translate(6346 62384)" fill="#BDBDBD"/>
            </g>
            <g id="Vector">
              <use xlink:href="#path0_fill" transform="translate(6342.67 62384)" fill="#BDBDBD"/>
            </g>
            <g id="Vector">
              <use xlink:href="#path1_fill" transform="translate(6338 62381.3)" fill="#BDBDBD"/>
            </g>
            <g id="Vector">
              <use xlink:href="#path2_fill" transform="translate(6338 62376)" fill="#BDBDBD"/>
            </g>
          </g>
        </g>
      </g>
    </g>
  </g>
  <defs>
    <path id="path0_fill" d="M 2.66667 0L 0 0L 0 2L 2.66667 2L 2.66667 0Z"/>
    <path
      id="path1_fill"
      d="M 0 10.3333C 0 10.5173 0.149333 10.6667 0.333333 10.6667L 15.6667 10.6667C 15.8507 10.6667 16 10.5173 16 10.3333L 16 0L 0 0L 0 10.3333ZM 1.66667 5.33333C 1.48267 5.33333 1.33333 5.184 1.33333 5C 1.33333 4.816 1.48267 4.66667 1.66667 4.66667L 4 4.66667L 4 2.66667L 1.66667 2.66667C 1.48267 2.66667 1.33333 2.51733 1.33333 2.33333C 1.33333 2.14933 1.48267 2 1.66667 2L 4 2L 4 1C 4 0.816 4.14933 0.666667 4.33333 0.666667C 4.51733 0.666667 4.66667 0.816 4.66667 1L 4.66667 2L 7.33333 2L 7.33333 1C 7.33333 0.816 7.48267 0.666667 7.66667 0.666667C 7.85067 0.666667 8 0.816 8 1L 8 2L 10.6667 2L 10.6667 1C 10.6667 0.816 10.816 0.666667 11 0.666667C 11.184 0.666667 11.3333 0.816 11.3333 1L 11.3333 2L 14.3333 2C 14.5173 2 14.6667 2.14933 14.6667 2.33333C 14.6667 2.51733 14.5173 2.66667 14.3333 2.66667L 11.3333 2.66667L 11.3333 4.66667L 14.3333 4.66667C 14.5173 4.66667 14.6667 4.816 14.6667 5C 14.6667 5.184 14.5173 5.33333 14.3333 5.33333L 11.3333 5.33333L 11.3333 7.33333L 14.3333 7.33333C 14.5173 7.33333 14.6667 7.48267 14.6667 7.66667C 14.6667 7.85067 14.5173 8 14.3333 8L 11.3333 8L 11.3333 9C 11.3333 9.184 11.184 9.33333 11 9.33333C 10.816 9.33333 10.6667 9.184 10.6667 9L 10.6667 8L 8 8L 8 9C 8 9.184 7.85067 9.33333 7.66667 9.33333C 7.48267 9.33333 7.33333 9.184 7.33333 9L 7.33333 8L 4.66667 8L 4.66667 9C 4.66667 9.184 4.51733 9.33333 4.33333 9.33333C 4.14933 9.33333 4 9.184 4 9L 4 8L 1.66667 8C 1.48267 8 1.33333 7.85067 1.33333 7.66667C 1.33333 7.48267 1.48267 7.33333 1.66667 7.33333L 4 7.33333L 4 5.33333L 1.66667 5.33333Z"/>
    <path
      id="path2_fill"
      d="M 15.6667 1.33333L 13.3333 1.33333L 13.3333 0.333333C 13.3333 0.149333 13.184 0 13 0L 11 0C 10.816 0 10.6667 0.149333 10.6667 0.333333L 10.6667 1.33333L 5.33333 1.33333L 5.33333 0.333333C 5.33333 0.149333 5.184 0 5 0L 3 0C 2.816 0 2.66667 0.149333 2.66667 0.333333L 2.66667 1.33333L 0.333333 1.33333C 0.149333 1.33333 0 1.48267 0 1.66667L 0 4.66667L 16 4.66667L 16 1.66667C 16 1.48267 15.8507 1.33333 15.6667 1.33333ZM 4.66667 2.66667L 3.33333 2.66667L 3.33333 0.666667L 4.66667 0.666667L 4.66667 2.66667ZM 12.6667 2.66667L 11.3333 2.66667L 11.3333 0.666667L 12.6667 0.666667L 12.6667 2.66667Z"/>
  </defs>
</svg>
