<svg width="20" height="18" viewBox="0 0 20 18" version="1.1" xmlns="http://www.w3.org/2000/svg" xmlns:xlink="http://www.w3.org/1999/xlink">
  <title>check 2.3.3.1 3</title>
  <desc>Created using Figma</desc>
  <g id="Canvas" transform="translate(-6339 -61318)">
    <g id="check 2.3.3.1 3">
      <g id="Filled Icons 1">
        <g id="Filled Icons">
          <g id="Vector">
            <use xlink:href="#path0_fill" transform="translate(6340 61319.6)" fill="#EB5757"/>
            <mask id="mask0_outline_out">
              <rect id="mask0_outline_inv" fill="white" x="-1" y="-2" width="21" height="19" transform="translate(6340 61319.6)"/>
              <use xlink:href="#path0_fill" fill="black" transform="translate(6340 61319.6)"/>
            </mask>
            <g mask="url(#mask0_outline_out)">
              <use xlink:href="#path1_stroke_2x" transform="translate(6340 61319.6)" fill="#FFFFFF"/>
            </g>
          </g>
        </g>
      </g>
    </g>
  </g>
  <defs>
    <path
      id="path0_fill"
      d="M 17.8904 2.73469L 15.2654 0.109687C 15.1192 -0.0365626 14.8815 -0.0365626 14.7352 0.109687L 5.6251 9.21919L 3.26489 6.85969C 3.11864 6.71344 2.88089 6.71344 2.73464 6.85969L 0.109686 9.48469C -0.0365619 9.63094 -0.0365619 9.86869 0.109686 10.0149L 5.3596 15.2649C 5.50585 15.4119 5.7436 15.4119 5.88985 15.2649L 17.8897 3.26494C 18.0367 3.11869 18.0367 2.88094 17.8904 2.73469Z"/>
    <path
      id="path1_stroke_2x"
      d="M 17.8904 2.73469L 17.1833 3.44179L 17.8904 2.73469ZM 15.2654 0.109687L 15.9726 -0.597414L 15.2654 0.109687ZM 14.7352 0.109687L 15.4423 0.816818L 15.4423 0.816789L 14.7352 0.109687ZM 5.6251 9.21919L 4.9181 9.9264L 5.62518 10.6333L 6.33218 9.92632L 5.6251 9.21919ZM 3.26489 6.85969L 2.55777 7.56679L 2.55789 7.5669L 3.26489 6.85969ZM 2.73464 6.85969L 3.44176 7.56679L 2.73464 6.85969ZM 0.109686 9.48469L -0.597427 8.77759L 0.109686 9.48469ZM 0.109686 10.0149L 0.816798 9.30784L 0.109686 10.0149ZM 5.3596 15.2649L 6.06852 14.5596L 6.06672 14.5578L 5.3596 15.2649ZM 5.88985 15.2649L 5.18273 14.5578L 5.18093 14.5596L 5.88985 15.2649ZM 17.8897 3.26494L 17.1844 2.55603L 17.1825 2.55784L 17.8897 3.26494ZM 18.5975 2.02759L 15.9726 -0.597414L 14.5583 0.816789L 17.1833 3.44179L 18.5975 2.02759ZM 15.9726 -0.597414C 15.4358 -1.1342 14.5649 -1.1342 14.0281 -0.597414L 15.4423 0.816789C 15.198 1.06107 14.8026 1.06107 14.5583 0.816789L 15.9726 -0.597414ZM 14.0281 -0.597443L 4.91802 8.51206L 6.33218 9.92632L 15.4423 0.816818L 14.0281 -0.597443ZM 6.3321 8.51197L 3.97189 6.15247L 2.55789 7.5669L 4.9181 9.9264L 6.3321 8.51197ZM 3.972 6.15259C 3.43523 5.6158 2.56431 5.6158 2.02753 6.15259L 3.44176 7.56679C 3.19748 7.81107 2.80205 7.81107 2.55777 7.56679L 3.972 6.15259ZM 2.02753 6.15259L -0.597427 8.77759L 0.816798 10.1918L 3.44176 7.56679L 2.02753 6.15259ZM -0.597427 8.77759C -1.13419 9.31436 -1.13419 10.1853 -0.597427 10.722L 0.816798 9.30784C 1.06107 9.55211 1.06107 9.94752 0.816798 10.1918L -0.597427 8.77759ZM -0.597427 10.722L 4.65249 15.972L 6.06672 14.5578L 0.816798 9.30784L -0.597427 10.722ZM 4.65068 15.9702C 5.18787 16.5102 6.06158 16.5102 6.59876 15.9702L 5.18093 14.5596C 5.42561 14.3137 5.82383 14.3137 6.06852 14.5596L 4.65068 15.9702ZM 6.59696 15.972L 18.5968 3.97204L 17.1825 2.55784L 5.18273 14.5578L 6.59696 15.972ZM 18.595 3.97384C 19.1346 3.43696 19.1346 2.56466 18.5975 2.02759L 17.1833 3.44179C 16.9387 3.19721 16.9387 2.80041 17.1844 2.55603L 18.595 3.97384Z"/>
  </defs>
</svg>
