<svg width="15" height="14" viewBox="0 0 15 14" version="1.1" xmlns="http://www.w3.org/2000/svg" xmlns:xlink="http://www.w3.org/1999/xlink" xmlns:figma="http://www.figma.com/figma/ns">
<title>Vector</title>
<desc>Created using Figma</desc>
<g id="Canvas" transform="translate(-2267 -19331)" figma:type="canvas">
<g id="Vector" style="mix-blend-mode:normal;" figma:type="vector">
<use xlink:href="#path0_fill" transform="translate(2267.5 19331)" fill="#898989" style="mix-blend-mode:normal;"/>
</g>
</g>
<defs>
<path id="path0_fill" d="M 13.7083 5.83333L 12.0429 5.83333C 11.9263 5.3725 11.7781 4.86092 11.5891 4.473L 12.7744 3.28767C 12.8882 3.17392 12.8882 2.989 12.7744 2.87525L 11.1242 1.22617C 11.0104 1.11183 10.8255 1.11183 10.7118 1.22617L 9.52583 2.41092C 9.13792 2.22192 8.62692 2.07375 8.16667 1.95767L 8.16667 0.291667C 8.16667 0.130667 8.036 0 7.875 0L 6.125 0C 5.964 0 5.83333 0.130667 5.83333 0.291667L 5.83333 1.95767C 5.3725 2.07375 4.86092 2.22192 4.47358 2.41092L 3.28767 1.22617C 3.17392 1.11183 2.989 1.11183 2.87525 1.22617L 1.225 2.87525C 1.11125 2.989 1.11125 3.17392 1.225 3.28767L 2.41092 4.47358C 2.2225 4.86033 2.07375 5.37192 1.95708 5.83333L 0.291667 5.83333C 0.130667 5.83333 0 5.964 0 6.125L 0 7.875C 0 8.036 0.130667 8.16667 0.291667 8.16667L 1.95708 8.16667C 2.07433 8.62808 2.22308 9.13967 2.4115 9.52642L 1.225 10.7129C 1.11125 10.8267 1.11125 11.011 1.225 11.1253L 2.87525 12.775C 2.98492 12.8847 3.17858 12.8847 3.28767 12.775L 4.47358 11.5891C 4.86033 11.7775 5.37192 11.9262 5.83392 12.0435L 5.83392 13.7083C 5.83392 13.8693 5.96458 14 6.12558 14L 7.87558 14C 8.03658 14 8.16725 13.8693 8.16725 13.7083L 8.16725 12.0435C 8.62808 11.9262 9.14025 11.7775 9.527 11.5897L 10.7135 12.775C 10.8272 12.8888 11.0122 12.8888 11.1259 12.775L 12.7756 11.1253C 12.8893 11.0116 12.8893 10.8267 12.7756 10.7129L 11.5903 9.527C 11.7787 9.14025 11.9274 8.62867 12.0441 8.16725L 13.7083 8.16725C 13.8693 8.16725 14 8.03658 14 7.87558L 14 6.12558C 14 5.964 13.8693 5.83333 13.7083 5.83333ZM 7 9.33333C 5.71317 9.33333 4.66667 8.28625 4.66667 7C 4.66667 5.71375 5.71317 4.66667 7 4.66667C 8.28683 4.66667 9.33333 5.71375 9.33333 7C 9.33333 8.28625 8.28683 9.33333 7 9.33333Z"/>
</defs>
</svg>
