<svg width="16" height="16" viewBox="0 0 16 16" version="1.1" xmlns="http://www.w3.org/2000/svg" xmlns:xlink="http://www.w3.org/1999/xlink">
<title>h2&#9;</title>
<desc>Created using Figma</desc>
<g id="Canvas" transform="translate(-2403 -27917)">
<g id="download 3.2.3.1 2">
<g id="Filled Icons 1">
<g id="Filled Icons">
<g id="Group">
<g id="Vector">
<use xlink:href="#path0_fill" transform="translate(2406 27917)" fill="#EB5757"/>
</g>
<g id="Vector">
<use xlink:href="#path1_fill" transform="translate(2403 27928.7)" fill="#EB5757"/>
</g>
</g>
</g>
</g>
</g>
</g>
<defs>
<path id="path0_fill" d="M 9.66629 7.33333L 7.66629 7.334L 7.66629 0.333333C 7.66629 0.15 7.51696 3.47694e-11 7.33296 3.47694e-11L 2.66629 3.47694e-11C 2.48296 3.47694e-11 2.33296 0.15 2.33296 0.333333L 2.33296 7.33333L 0.33296 7.33333C 0.0396266 7.33333 -0.112373 7.692 0.0976265 7.90267L 4.76429 12.5687C 4.88963 12.694 5.11029 12.694 5.23563 12.5687L 9.90229 7.90267C 10.113 7.692 9.96163 7.33333 9.66629 7.33333Z"/>
<path id="path1_fill" d="M 15.3333 0C 14.9647 0 14.6667 0.298 14.6667 0.666667L 14.6667 3L 1.33333 3L 1.33333 0.666667C 1.33333 0.298 1.03467 0 0.666667 0C 0.298 0 0 0.298 0 0.666667L 0 3.66667C 0 4.03467 0.298 4.33333 0.666667 4.33333L 15.3333 4.33333C 15.7013 4.33333 16 4.03467 16 3.66667L 16 0.666667C 16 0.298 15.7013 0 15.3333 0Z"/>
</defs>
</svg>
