<svg width="24" height="14" viewBox="0 0 24 14" version="1.1" xmlns="http://www.w3.org/2000/svg" xmlns:xlink="http://www.w3.org/1999/xlink">
<title>Group.svg</title>
<desc>Created using Figma</desc>
<g id="Canvas" transform="translate(-3355 -39892)">
<g id="Group">
<g id="Vector">
<use xlink:href="#path0_fill" transform="translate(3364 39896)" fill="#979797"/>
</g>
<g id="Vector">
<use xlink:href="#path1_fill" transform="translate(3355 39892)" fill="#979797"/>
</g>
</g>
</g>
<defs>
<path id="path0_fill" d="M 3 6C 4.65429 6 6 4.65429 6 3C 6 1.34486 4.65429 0 3 0C 1.34486 0 3.46592e-07 1.34486 3.46592e-07 3C 3.46592e-07 4.65429 1.34486 6 3 6ZM 1.28571 2.57143C 1.52143 2.57143 1.71429 2.76343 1.71429 3C 1.71429 3.70886 2.29029 4.28571 3 4.28571C 3.708 4.28571 4.28571 3.70886 4.28571 3C 4.28571 2.29029 3.708 1.71429 3 1.71429C 2.76343 1.71429 2.57143 1.52143 2.57143 1.28571C 2.57143 1.04829 2.76343 0.857143 3 0.857143C 4.18114 0.857143 5.14286 1.818 5.14286 3C 5.14286 4.18114 4.18114 5.14286 3 5.14286C 1.818 5.14286 0.857143 4.18114 0.857143 3C 0.857143 2.76343 1.04914 2.57143 1.28571 2.57143Z"/>
<path id="path1_fill" d="M 0.108 7.31C 0.325 7.583 5.482 14 12.001 14C 18.519 14 23.676 7.583 23.893 7.31C 24.037 7.128 24.037 6.871 23.893 6.69C 23.676 6.415 18.519 0 12.001 0C 5.482 0 0.325 6.415 0.108 6.69C -0.036 6.871 -0.036 7.128 0.108 7.31ZM 12.001 2.5C 14.481 2.5 16.501 4.518 16.501 7C 16.501 9.482 14.481 11.5 12.001 11.5C 9.519 11.5 7.501 9.482 7.501 7C 7.501 4.518 9.519 2.5 12.001 2.5Z"/>
</defs>
</svg>
