<svg width="16" height="19" viewBox="0 0 16 19" version="1.1" xmlns="http://www.w3.org/2000/svg" xmlns:xlink="http://www.w3.org/1999/xlink">
<title>home</title>
<desc>Created using Figma</desc>
<g id="Canvas" transform="translate(-536 -59915)">
<g id="home">
<g id="Group">
<g id="Vector">
<use xlink:href="#path0_fill" transform="translate(537 59916)" fill="#8B8B8B"/>
<use xlink:href="#path1_stroke" transform="translate(537 59916)" fill="#8B8B8B"/>
</g>
<g id="Vector">
<use xlink:href="#path2_stroke" transform="translate(541 59924)" fill="#FFFFFF"/>
</g>
</g>
</g>
</g>
<defs>
<path id="path0_fill" d="M 0 5.6L 7 0L 14 5.6L 14 14.4C 14 14.8243 13.8361 15.2313 13.5444 15.5314C 13.2527 15.8314 12.857 16 12.4444 16L 1.55556 16C 1.143 16 0.747335 15.8314 0.455612 15.5314C 0.163888 15.2313 3.45403e-16 14.8243 0 14.4L 0 5.6Z"/>
<path id="path1_stroke" d="M 0 5.6L -0.624695 4.81913C -0.86191 5.0089 -1 5.29622 -1 5.6L 0 5.6ZM 7 0L 7.62469 -0.780869C 7.25948 -1.07304 6.74052 -1.07304 6.37531 -0.780869L 7 0ZM 14 5.6L 15 5.6C 15 5.29622 14.8619 5.0089 14.6247 4.81913L 14 5.6ZM 0 14.4L -1 14.4L 0 14.4ZM 0.624695 6.38087L 7.62469 0.780869L 6.37531 -0.780869L -0.624695 4.81913L 0.624695 6.38087ZM 6.37531 0.780869L 13.3753 6.38087L 14.6247 4.81913L 7.62469 -0.780869L 6.37531 0.780869ZM 13 5.6L 13 14.4L 15 14.4L 15 5.6L 13 5.6ZM 13 14.4C 13 14.5681 12.9348 14.7238 12.8274 14.8343L 14.2614 16.2284C 14.7374 15.7388 15 15.0806 15 14.4L 13 14.4ZM 12.8274 14.8343C 12.7209 14.9438 12.5826 15 12.4444 15L 12.4444 17C 13.1315 17 13.7844 16.719 14.2614 16.2284L 12.8274 14.8343ZM 12.4444 15L 1.55556 15L 1.55556 17L 12.4444 17L 12.4444 15ZM 1.55556 15C 1.41745 15 1.2791 14.9438 1.17261 14.8343L -0.261383 16.2284C 0.215565 16.719 0.868544 17 1.55556 17L 1.55556 15ZM 1.17261 14.8343C 1.06518 14.7238 1 14.5681 1 14.4L -1 14.4C -1 15.0806 -0.737402 15.7388 -0.261383 16.2284L 1.17261 14.8343ZM 1 14.4L 1 5.6L -1 5.6L -1 14.4L 1 14.4Z"/>
<path id="path2_stroke" d="M -0.5 9C -0.5 9.27614 -0.276142 9.5 0 9.5C 0.276142 9.5 0.5 9.27614 0.5 9L -0.5 9ZM 0 0L 0 -0.5C -0.276142 -0.5 -0.5 -0.276142 -0.5 1.11022e-16L 0 0ZM 6 0L 6.5 0C 6.5 -0.276142 6.27614 -0.5 6 -0.5L 6 0ZM 5.5 9C 5.5 9.27614 5.72386 9.5 6 9.5C 6.27614 9.5 6.5 9.27614 6.5 9L 5.5 9ZM 0.5 9L 0.5 0L -0.5 0L -0.5 9L 0.5 9ZM 0 0.5L 6 0.5L 6 -0.5L 0 -0.5L 0 0.5ZM 5.5 0L 5.5 9L 6.5 9L 6.5 0L 5.5 0Z"/>
</defs>
</svg>
