<svg width="12" height="16" viewBox="0 0 12 16" version="1.1" xmlns="http://www.w3.org/2000/svg" xmlns:xlink="http://www.w3.org/1999/xlink" xmlns:figma="http://www.figma.com/figma/ns"><title>lock close 1.2.3.1</title><desc>Created using Figma</desc><g id="Canvas" transform="translate(-3141 -241)" figma:type="canvas"><g id="lock close 1.2.3.1" style="mix-blend-mode:normal;" figma:type="frame"><g id="Filled Icons 1" style="mix-blend-mode:normal;" figma:type="frame"><g id="Filled Icons" style="mix-blend-mode:normal;" figma:type="frame"><g id="Vector" style="mix-blend-mode:normal;" figma:type="vector"><use xlink:href="#path0_fill" transform="translate(3141 241)" fill="#808080" style="mix-blend-mode:normal;"/></g></g></g></g></g><defs><path id="path0_fill" d="M 11.666 6L 9.99933 6L 9.99933 4C 9.99933 1.794 8.20467 0 5.99933 0C 3.79333 0 1.99933 1.794 1.99933 4L 1.99933 6L 0.333333 6C 0.149333 6 -4.83195e-08 6.14933 -4.83195e-08 6.33333L -4.83195e-08 15.6667C -4.83195e-08 15.8507 0.149333 16 0.333333 16L 11.666 16C 11.85 16 11.9993 15.8507 11.9993 15.6667L 11.9993 6.33333C 11.9993 6.14933 11.85 6 11.666 6ZM 2.666 4C 2.666 2.162 4.16067 0.666667 5.99933 0.666667C 7.83733 0.666667 9.33267 2.162 9.33267 4L 9.33267 6L 2.666 6L 2.666 4ZM 6.33267 10.5733L 6.33267 12.3333C 6.33267 12.5167 6.18267 12.6667 5.99933 12.6667C 5.81533 12.6667 5.666 12.5167 5.666 12.3333L 5.666 10.5733C 5.46733 10.4587 5.33267 10.2453 5.33267 10C 5.33267 9.632 5.63133 9.33333 5.99933 9.33333C 6.36667 9.33333 6.666 9.632 6.666 10C 6.666 10.2453 6.53067 10.4587 6.33267 10.5733Z"/></defs></svg>
