<svg width="16" height="11" viewBox="0 0 16 11" version="1.1" xmlns="http://www.w3.org/2000/svg" xmlns:xlink="http://www.w3.org/1999/xlink" xmlns:figma="http://www.figma.com/figma/ns"><title>email.2.3.1</title><desc>Created using Figma</desc><g id="Canvas" transform="translate(-3139 -176)" figma:type="canvas"><g id="email.2.3.1" style="mix-blend-mode:normal;" figma:type="frame"><g id="Filled Icons 1" style="mix-blend-mode:normal;" figma:type="frame"><g id="Filled Icons" style="mix-blend-mode:normal;" figma:type="frame"><g id="Group" style="mix-blend-mode:normal;" figma:type="frame"><g id="Vector" style="mix-blend-mode:normal;" figma:type="vector"><use xlink:href="#path0_fill" transform="translate(3140.3 176.667)" fill="#808080" style="mix-blend-mode:normal;"/></g><g id="Vector" style="mix-blend-mode:normal;" figma:type="vector"><use xlink:href="#path1_fill" transform="translate(3139.67 177.357)" fill="#808080" style="mix-blend-mode:normal;"/></g></g></g></g></g></g><defs><path id="path0_fill" d="M 6.70267 5.57333L 13.4327 0.22C 13.2227 0.082 12.972 0 12.702 0L 0.702 0C 0.444 0 0.204667 0.0766668 -3.05176e-08 0.204667L 6.70267 5.57333Z"/><path id="path1_fill" d="M 14.5093 0.0266668L 7.53067 5.57C 7.412 5.65933 7.25333 5.65933 7.13467 5.56933L 0.173333 -1.50045e-07C 0.0666667 0.191333 0.000666667 0.408 0 0.642667L 0 7.976C 0.000666667 8.71133 0.598667 9.30933 1.334 9.30933L 13.3327 9.30933C 14.068 9.30933 14.666 8.71133 14.6667 7.976L 14.6667 0.642667C 14.6667 0.419333 14.6067 0.211333 14.5093 0.0266668Z"/></defs></svg>
