<svg width="16" height="22" viewBox="0 0 16 22" version="1.1" xmlns="http://www.w3.org/2000/svg" xmlns:xlink="http://www.w3.org/1999/xlink">
  <title>Vector.svg</title>
  <desc>Created using Figma</desc>
  <g id="Canvas" transform="translate(-3339 -36771)">
    <g id="Event" clip-path="url(#clip-0)">
      <g id="tab nav">
        <g id="collaborators">
          <g id="Group">
            <g id="Vector">
              <use xlink:href="#path2_stroke" transform="translate(3340.5 36772.5)" fill="#979797"/>
            </g>

          </g>

        </g>
      </g>
    </g>
  </g>
  <defs>
    <filter id="filter0_i" filterUnits="userSpaceOnUse" x="2069" y="36754" width="1440" height="56" color-interpolation-filters="sRGB">
      <feFlood flood-opacity="0" result="BackgroundImageFix"/>
      <feBlend mode="normal" in="SourceGraphic" in2="BackgroundImageFix" result="shape"/>
      <feColorMatrix in="SourceAlpha" type="matrix" values="0 0 0 0 0 0 0 0 0 0 0 0 0 0 0 0 0 0 255 0" result="hardAlpha"/>
      <feOffset dx="0" dy="-1"/>
      <feComposite in2="hardAlpha" operator="arithmetic" k2="-1" k3="1"/>
      <feColorMatrix type="matrix" values="0 0 0 0 0.893082 0 0 0 0 0.893082 0 0 0 0 0.893082 0 0 0 1 0"/>
      <feBlend mode="normal" in2="shape" result="effect1_innerShadow"/>
    </filter>
    <path id="path0_fill" d="M 0 0L 1440 0L 1440 56L 0 56L 0 0Z"/>
    <path
      id="path1_fill"
      d="M 13.466 12.782C 12.689 12.525 11.851 12.249 11 11.928L 11 9.428C 11 9.428 12.5 8.809 12.5 6.428C 13.282 6.428 13.282 4.357 12.5 4.357C 12.5 4.124 13.329 2.75 13 1.428C 12.526 -0.476 6.974 -0.476 6.5 1.428C 4.131 0.951 5.5 4.109 5.5 4.428C 4.717 4.428 4.717 6.428 5.5 6.428C 5.5 8.809 7 9.428 7 9.428L 7 11.928C 4.222 12.984 0.912 13.684 0.5 14.928C 0.026 16.357 0 19 0 19L 11 19"/>
    <path
      id="path2_stroke"
      d="M 13.152 13.7314C 13.6763 13.9048 14.242 13.6204 14.4154 13.096C 14.5888 12.5717 14.3044 12.006 13.78 11.8326L 13.152 13.7314ZM 11 11.928L 10 11.928C 10 12.3441 10.2577 12.7168 10.6471 12.8637L 11 11.928ZM 11 9.428L 10.6185 8.50362C 10.2442 8.65809 10 9.02306 10 9.428L 11 9.428ZM 12.5 6.428L 12.5 5.428C 11.9477 5.428 11.5 5.87572 11.5 6.428L 12.5 6.428ZM 12.5 4.357L 11.5 4.357C 11.5 4.90928 11.9477 5.357 12.5 5.357L 12.5 4.357ZM 13 1.428L 13.9704 1.1865L 13.9704 1.18642L 13 1.428ZM 6.5 1.428L 6.30261 2.40833C 6.82677 2.51386 7.34122 2.18842 7.47038 1.66958L 6.5 1.428ZM 5.5 4.428L 5.5 5.428C 6.05228 5.428 6.5 4.98028 6.5 4.428L 5.5 4.428ZM 5.5 6.428L 6.5 6.428C 6.5 5.87572 6.05228 5.428 5.5 5.428L 5.5 6.428ZM 7 9.428L 8 9.428C 8 9.02306 7.75579 8.65809 7.38146 8.50362L 7 9.428ZM 7 11.928L 7.35532 12.8627C 7.74343 12.7152 8 12.3432 8 11.928L 7 11.928ZM 0.5 14.928L 1.44915 15.2428L 1.44929 15.2424L 0.5 14.928ZM 0 19L -0.999952 18.9902C -1.00258 19.2571 -0.898387 19.514 -0.710576 19.7036C -0.522765 19.8933 -0.266921 20 0 20L 0 19ZM 11 20C 11.5523 20 12 19.5523 12 19C 12 18.4477 11.5523 18 11 18L 11 20ZM 13.78 11.8326C 13.0024 11.5754 12.184 11.3061 11.3529 10.9924L 10.6471 12.8637C 11.518 13.1919 12.3756 13.4746 13.152 13.7314L 13.78 11.8326ZM 12 11.928L 12 9.428L 10 9.428L 10 11.928L 12 11.928ZM 11 9.428C 11.3815 10.3524 11.3821 10.3521 11.3827 10.3519C 11.3829 10.3518 11.3836 10.3515 11.384 10.3513C 11.3844 10.3511 11.3857 10.3506 11.3867 10.3502C 11.3877 10.3498 11.3904 10.3486 11.3924 10.3478C 11.3948 10.3468 11.4009 10.3441 11.4057 10.3421C 11.412 10.3393 11.4265 10.3328 11.4389 10.327C 11.457 10.3186 11.4949 10.3001 11.53 10.2818C 11.5864 10.2519 11.6929 10.1904 11.7951 10.1221C 11.9705 10.0022 12.2655 9.75827 12.5199 9.45907C 13.0457 8.82474 13.5 7.84823 13.5 6.428L 11.5 6.428C 11.5 7.38877 11.2043 7.91226 10.9801 8.18268C 10.8595 8.33585 10.7795 8.39549 10.6736 8.46608C 10.6353 8.49296 10.6246 8.49841 10.5989 8.51174C 10.593 8.515 10.5909 8.51568 10.5948 8.51391C 10.5933 8.51454 10.6035 8.51 10.6029 8.51025C 10.601 8.5111 10.6107 8.5069 10.6097 8.5073C 10.6084 8.50785 10.6145 8.50528 10.6139 8.50555C 10.6132 8.50585 10.6165 8.50445 10.6162 8.5046C 10.6165 8.50444 10.6171 8.5042 10.6173 8.50412C 10.6179 8.50387 10.6185 8.50362 11 9.428ZM 12.5 7.428C 13.2241 7.428 13.646 6.92573 13.8331 6.55409C 13.9848 6.23099 14.0822 5.74454 14.0865 5.3925C 14.0822 5.04046 13.9848 4.55401 13.8331 4.23091C 13.646 3.85927 13.2241 3.357 12.5 3.357L 12.5 5.357C 12.4364 5.357 12.3691 5.3461 12.3032 5.32273C 12.2381 5.29963 12.1853 5.26828 12.1453 5.23739C 12.1061 5.20715 12.081 5.1788 12.0668 5.16047C 12.0527 5.14226 12.047 5.13083 12.0467 5.13028C 12.0463 5.12953 12.0495 5.13576 12.0543 5.15032C 12.059 5.16468 12.0644 5.18448 12.0695 5.2097C 12.0799 5.26121 12.0865 5.32423 12.0865 5.3925C 12.0865 5.46077 12.0799 5.52379 12.0695 5.5753C 12.0644 5.60052 12.059 5.62032 12.0543 5.63468C 12.0495 5.64924 12.0463 5.65547 12.0467 5.65472C 12.047 5.65417 12.0527 5.64274 12.0668 5.62453C 12.081 5.6062 12.1061 5.57785 12.1453 5.54761C 12.1853 5.51672 12.2381 5.48537 12.3032 5.46227C 12.3691 5.4389 12.4364 5.428 12.5 5.428L 12.5 7.428ZM 13.5 4.357C 13.5 4.52635 13.4471 4.63877 13.478 4.55107C 13.4931 4.50767 13.517 4.44835 13.5534 4.35696C 13.6261 4.17436 13.7334 3.90226 13.8288 3.59597C 14.0105 3.00213 14.164 2.05874 13.9704 1.1865L 12.0296 1.6695C 12.165 2.11926 12.0685 2.52387 11.9179 3.00577C 11.8472 3.23737 11.7678 3.43508 11.6954 3.61695C 11.6592 3.70779 11.6209 3.80437 11.5919 3.88587C 11.5788 3.92308 11.5 4.1294 11.5 4.357L 13.5 4.357ZM 13.9704 1.18642C 13.7359 0.244581 12.9289 -0.288675 12.2227 -0.571382C 11.522 -0.845111 10.5815 -0.996933 9.75 -1C 8.91849 -0.996933 7.978 -0.845111 7.27731 -0.571382C 6.57106 -0.288675 5.76409 0.244581 5.52962 1.18642L 7.47038 1.66958C 7.47291 1.65942 7.53769 1.47868 8.02056 1.28538C 8.509 1.08311 9.07501 0.996933 9.75 1C 10.425 0.996933 10.991 1.08311 11.4794 1.28538C 11.9623 1.47868 12.0271 1.65942 12.0296 1.66958L 13.9704 1.18642ZM 6.69739 0.447675C 5.93822 0.294816 5.1349 0.37164 4.59187 0.992016C 4.11635 1.53527 4.08654 2.24085 4.11342 2.68931C 4.14536 3.16011 4.26287 3.67152 4.35863 4.02174C 4.40748 4.19987 4.45287 4.35157 4.48358 4.46019C 4.49845 4.51271 4.50603 4.54016 4.51131 4.5635C 4.52127 4.60625 4.5 4.53578 4.5 4.428L 6.5 4.428C 6.5 4.28035 6.46803 4.14782 6.4591 4.1095C 6.44548 4.05176 6.42596 3.97912 6.40803 3.91569C 6.37312 3.79241 6.33006 3.64879 6.28759 3.49345C 6.2007 3.17673 6.12401 2.86864 6.10983 2.56969C 6.09058 2.2484 6.16271 2.23398 6.09679 2.3093C 5.96335 2.46174 5.87727 2.32268 6.30261 2.40833L 6.69739 0.447675ZM 5.5 3.428C 4.79489 3.428 4.36915 3.90213 4.17307 4.27775C 4.018 4.59715 3.91742 5.0815 3.91275 5.428C 3.91742 5.7745 4.018 6.25885 4.17307 6.57825C 4.36915 6.95387 4.79489 7.428 5.5 7.428L 5.5 5.428C 5.52896 5.428 5.55972 5.43033 5.59165 5.4356C 5.6236 5.44087 5.65524 5.44883 5.68604 5.45937C 5.7168 5.46989 5.74541 5.48253 5.7716 5.49652C 5.79774 5.51048 5.82068 5.52537 5.84051 5.54014C 5.87998 5.56955 5.90619 5.59778 5.92184 5.61727C 5.93737 5.63661 5.9445 5.64978 5.94605 5.65275C 5.94768 5.65588 5.94557 5.65238 5.94162 5.64081C 5.93773 5.62942 5.93293 5.61277 5.92834 5.5908C 5.92378 5.56893 5.91981 5.54367 5.91702 5.51558C 5.91423 5.48755 5.91275 5.45808 5.91275 5.428C 5.91275 5.39792 5.91423 5.36845 5.91702 5.34042C 5.91981 5.31233 5.92378 5.28707 5.92834 5.2652C 5.93293 5.24323 5.93773 5.22658 5.94162 5.21519C 5.94557 5.20362 5.94768 5.20012 5.94605 5.20325C 5.9445 5.20622 5.93737 5.21939 5.92184 5.23873C 5.90619 5.25821 5.87998 5.28645 5.84051 5.31586C 5.82068 5.33063 5.79774 5.34552 5.7716 5.35948C 5.74541 5.37347 5.7168 5.38611 5.68604 5.39663C 5.65524 5.40717 5.6236 5.41513 5.59165 5.4204C 5.55972 5.42567 5.52896 5.428 5.5 5.428L 5.5 3.428ZM 4.5 6.428C 4.5 7.84823 4.95429 8.82474 5.48012 9.45907C 5.73452 9.75827 6.0295 10.0022 6.20489 10.1221C 6.30713 10.1904 6.41362 10.2519 6.46999 10.2818C 6.50509 10.3001 6.54299 10.3186 6.56108 10.327C 6.57349 10.3328 6.58804 10.3393 6.59429 10.3421C 6.59907 10.3441 6.60518 10.3468 6.60757 10.3478C 6.60958 10.3486 6.61234 10.3498 6.61334 10.3502C 6.61426 10.3506 6.61556 10.3511 6.61601 10.3513C 6.61645 10.3515 6.61708 10.3518 6.61729 10.3519C 6.61792 10.3521 6.61854 10.3524 7 9.428C 7.38146 8.50362 7.38207 8.50387 7.38267 8.50412C 7.38286 8.5042 7.38346 8.50444 7.38385 8.5046C 7.38348 8.50445 7.38684 8.50585 7.38611 8.50555C 7.38547 8.50528 7.39156 8.50785 7.39026 8.5073C 7.38931 8.5069 7.39905 8.5111 7.39711 8.51025C 7.39654 8.51 7.40665 8.51454 7.40523 8.51391C 7.40911 8.51568 7.40702 8.515 7.40111 8.51174C 7.37544 8.49841 7.36475 8.49296 7.32636 8.46608C 7.2205 8.39549 7.14048 8.33585 7.01988 8.18268C 6.79571 7.91226 6.5 7.38877 6.5 6.428L 4.5 6.428ZM 6 9.428L 6 11.928L 8 11.928L 8 9.428L 6 9.428ZM 6.64468 10.9933C 5.2945 11.5074 3.77373 11.946 2.50985 12.4218C 1.87175 12.6629 1.24311 12.9418 0.769112 13.2347C 0.298485 13.5286 -0.234174 13.9641 -0.449292 14.6136L 1.44929 15.2424C 1.44778 15.3375 1.50454 15.1266 1.82845 14.9311C 2.17777 14.71 2.6275 14.5146 3.21565 14.2932C 4.40427 13.844 5.9275 13.4046 7.35532 12.8627L 6.64468 10.9933ZM -0.449147 14.6132C -0.712628 15.4231 -0.856987 16.5605 -0.924696 17.4218C -0.958632 17.8565 -0.977794 18.2523 -0.987868 18.5283C -0.992961 18.6684 -0.996031 18.7845 -0.997719 18.8618C -0.998582 18.9015 -0.999149 18.9337 -0.999472 18.9544C -0.999639 18.9653 -0.999762 18.9742 -0.999831 18.9798C -0.999869 18.9827 -0.9999 18.9854 -0.999916 18.9869C -0.999926 18.9877 -0.999935 18.9886 -0.99994 18.989C -0.999943 18.9893 -0.999946 18.9896 -0.999947 18.9897C -0.999948 18.9898 -0.999949 18.9899 -0.99995 18.99C -0.999951 18.9901 -0.999952 18.9902 0 19C 0.999952 19.0098 0.999951 19.0099 0.99995 19.01C 0.99995 19.01 0.99995 19.01 0.999949 19.0101C 0.999949 19.0101 0.999949 19.0101 0.99995 19.01C 0.999952 19.0098 0.999953 19.0097 0.999958 19.0093C 0.999969 19.0082 0.999983 19.007 1.00001 19.005C 1.00007 19.0004 1.00015 18.9944 1.00029 18.9855C 1.00058 18.9668 1.00103 18.9409 1.00181 18.9054C 1.00339 18.8327 1.00605 18.7311 1.01081 18.6011C 1.02042 18.3369 1.03738 17.9827 1.0692 17.578C 1.13299 16.7605 1.23863 15.8619 1.44915 15.2428L -0.449147 14.6132ZM 0 20L 11 20L 11 18L 0 18L 0 20Z"/>
    <path id="path3_fill" d="M 1.95 4.00044C 3.02696 4.00044 3.9 3.10491 3.9 2.00022C 3.9 0.89553 3.02696 0 1.95 0C 0.873045 0 0 0.89553 0 2.00022C 0 3.10491 0.873045 4.00044 1.95 4.00044Z"/>
    <path
      id="path4_stroke"
      d="M 2.9 2.00022C 2.9 2.57675 2.45085 3.00044 1.95 3.00044L 1.95 5.00044C 3.60306 5.00044 4.9 3.63308 4.9 2.00022L 2.9 2.00022ZM 1.95 3.00044C 1.44915 3.00044 1 2.57675 1 2.00022L -1 2.00022C -1 3.63308 0.296941 5.00044 1.95 5.00044L 1.95 3.00044ZM 1 2.00022C 1 1.42369 1.44915 1 1.95 1L 1.95 -1C 0.296941 -1 -1 0.367369 -1 2.00022L 1 2.00022ZM 1.95 1C 2.45085 1 2.9 1.42369 2.9 2.00022L 4.9 2.00022C 4.9 0.367369 3.60306 -1 1.95 -1L 1.95 1Z"/>
    <path id="path5_fill" d="M 18 9C 18 13.9706 13.9706 18 9 18C 4.02944 18 0 13.9706 0 9C 0 4.02944 4.02944 0 9 0C 13.9706 0 18 4.02944 18 9Z"/>
    <path
      id="path6_stroke_2x"
      d="M 17 9C 17 13.4183 13.4183 17 9 17L 9 19C 14.5228 19 19 14.5228 19 9L 17 9ZM 9 17C 4.58172 17 1 13.4183 1 9L -1 9C -1 14.5228 3.47715 19 9 19L 9 17ZM 1 9C 1 4.58172 4.58172 1 9 1L 9 -1C 3.47715 -1 -1 3.47715 -1 9L 1 9ZM 9 1C 13.4183 1 17 4.58172 17 9L 19 9C 19 3.47715 14.5228 -1 9 -1L 9 1Z"/>
  </defs>
</svg>
