<svg width="20" height="20" viewBox="0 0 20 20" version="1.1" xmlns="http://www.w3.org/2000/svg" xmlns:xlink="http://www.w3.org/1999/xlink">
<title>corner-down-right</title>
<desc>Created using Figma</desc>
<g id="Canvas" transform="translate(-4119 -24593)">
<g id="corner-down-right">
<g id="Rectangle 106">
<use xlink:href="#path0_fill" transform="translate(4119 24593)" fill="#FFFFFF" fill-opacity="0.01"/>
</g>
<g id="Group">
<g id="Vector">
<use xlink:href="#path1_stroke" transform="matrix(-1 0 0 1 4135 24601.5)" fill="#909090"/>
</g>
<g id="Vector">
<use xlink:href="#path2_stroke" transform="matrix(-1 0 0 1 4135 24597)" fill="#909090"/>
</g>
</g>
</g>
</g>
<defs>
<path id="path0_fill" d="M 0 0L 20 0L 20 20L 0 20L 0 0Z"/>
<path id="path1_stroke" d="M 4.45711 0.707107C 4.84763 0.316583 4.84763 -0.316583 4.45711 -0.707107C 4.06658 -1.09763 3.43342 -1.09763 3.04289 -0.707107L 4.45711 0.707107ZM 0 3.75L -0.707107 3.04289C -1.09763 3.43342 -1.09763 4.06658 -0.707107 4.45711L 0 3.75ZM 3.04289 8.20711C 3.43342 8.59763 4.06658 8.59763 4.45711 8.20711C 4.84763 7.81658 4.84763 7.18342 4.45711 6.79289L 3.04289 8.20711ZM 3.04289 -0.707107L -0.707107 3.04289L 0.707107 4.45711L 4.45711 0.707107L 3.04289 -0.707107ZM -0.707107 4.45711L 3.04289 8.20711L 4.45711 6.79289L 0.707107 3.04289L -0.707107 4.45711Z"/>
<path id="path2_stroke" d="M 13 0C 13 -0.552285 12.5523 -1 12 -1C 11.4477 -1 11 -0.552285 11 0L 13 0ZM 9 8.25L 9 9.25L 9 8.25ZM 0 7.25C -0.552285 7.25 -1 7.69772 -1 8.25C -1 8.80229 -0.552285 9.25 0 9.25L 0 7.25ZM 11 0L 11 5.25L 13 5.25L 13 0L 11 0ZM 11 5.25C 11 5.78043 10.7893 6.28914 10.4142 6.66421L 11.8284 8.07843C 12.5786 7.32828 13 6.31087 13 5.25L 11 5.25ZM 10.4142 6.66421C 10.0391 7.03929 9.53043 7.25 9 7.25L 9 9.25C 10.0609 9.25 11.0783 8.82857 11.8284 8.07843L 10.4142 6.66421ZM 9 7.25L 0 7.25L 0 9.25L 9 9.25L 9 7.25Z"/>
</defs>
</svg>
