<svg width="20" height="20" viewBox="0 0 20 20" version="1.1" xmlns="http://www.w3.org/2000/svg" xmlns:xlink="http://www.w3.org/1999/xlink">
<title>remove</title>
<desc>Created using Figma</desc>
<g id="Canvas" transform="translate(-4079 -24556)">
<g id="remove">
<g id="Rectangle 34">
<use xlink:href="#path0_fill" transform="translate(4079 24556)" fill="#FFFFFF" fill-opacity="0.01"/>
</g>
<g id="Group">
<g id="Ellipse 12">
<use xlink:href="#path1_stroke" transform="translate(4081.5 24558.5)" fill="#909090"/>
</g>
<g id="Rectangle 33">
<use xlink:href="#path2_fill" transform="translate(4085 24565.2)" fill="#909090"/>
</g>
</g>
</g>
</g>
<defs>
<path id="path0_fill" d="M 0 0L 20 0L 20 20L 0 20L 0 0Z"/>
<path id="path1_stroke" d="M 14 7.5C 14 11.0899 11.0899 14 7.5 14L 7.5 16C 12.1944 16 16 12.1944 16 7.5L 14 7.5ZM 7.5 14C 3.91015 14 1 11.0899 1 7.5L -1 7.5C -1 12.1944 2.80558 16 7.5 16L 7.5 14ZM 1 7.5C 1 3.91015 3.91015 1 7.5 1L 7.5 -1C 2.80558 -1 -1 2.80558 -1 7.5L 1 7.5ZM 7.5 1C 11.0899 1 14 3.91015 14 7.5L 16 7.5C 16 2.80558 12.1944 -1 7.5 -1L 7.5 1Z"/>
<path id="path2_fill" d="M 0 0.833333C 0 0.373096 0.373096 0 0.833333 0L 7.16667 0C 7.6269 0 8 0.373096 8 0.833333C 8 1.29357 7.6269 1.66667 7.16667 1.66667L 0.833333 1.66667C 0.373096 1.66667 0 1.29357 0 0.833333Z"/>
</defs>
</svg>
