<svg width="16" height="16" viewBox="0 0 16 16" version="1.1" xmlns="http://www.w3.org/2000/svg" xmlns:xlink="http://www.w3.org/1999/xlink" xmlns:figma="http://www.figma.com/figma/ns"><title>Vector</title><desc>Created using Figma</desc><g id="Canvas" transform="translate(-627 -309)" figma:type="canvas"><g id="Vector" style="mix-blend-mode:normal;" figma:type="vector"><use xlink:href="#path0_fill" transform="translate(627 309)" style="mix-blend-mode:normal;"/></g></g><defs><path id="path0_fill" d="M 6.00006 12.0001C 7.42074 12.0001 8.72609 11.5008 9.75543 10.6721L 14.8608 15.8035C 15.1202 16.0648 15.5415 16.0655 15.8035 15.8055C 16.0648 15.5455 16.0655 15.1235 15.8062 14.8628L 10.6941 9.72543C 11.5094 8.70142 12.0001 7.40741 12.0001 6.00006C 12.0001 2.69136 9.30876 0 6.00006 0C 2.69136 0 0 2.69136 0 6.00006C 0 9.3081 2.69136 12.0001 6.00006 12.0001ZM 6.00006 1.33335C 8.57275 1.33335 10.6668 3.4267 10.6668 6.00006C 10.6668 8.57275 8.57275 10.6668 6.00006 10.6668C 3.4267 10.6668 1.33335 8.57275 1.33335 6.00006C 1.33335 3.4267 3.4267 1.33335 6.00006 1.33335Z"/></defs></svg>
