<svg width="19" height="19" viewBox="0 0 19 19" version="1.1" xmlns="http://www.w3.org/2000/svg" xmlns:xlink="http://www.w3.org/1999/xlink" xmlns:figma="http://www.figma.com/figma/ns">
<g id="Canvas" transform="translate(-2070 -19675)" figma:type="canvas">
<g id="Filled Icons 1" style="mix-blend-mode:normal;" figma:type="frame">
<g id="Filled Icons" style="mix-blend-mode:normal;" figma:type="frame">
<g id="Group" style="mix-blend-mode:normal;" figma:type="frame">
<g id="Vector" style="mix-blend-mode:normal;" figma:type="vector">
<use xlink:href="#path0_fill" transform="translate(2070.5 19680.6)" fill="#343434" fill-opacity="0.57" style="mix-blend-mode:normal;"/>
</g>
<g id="Vector" style="mix-blend-mode:normal;" figma:type="vector">
<use xlink:href="#path1_fill" transform="translate(2077.58 19675)" fill="#343434" fill-opacity="0.57" style="mix-blend-mode:normal;"/>
</g>
</g>
</g>
</g>
</g>
<defs>
<path id="path0_fill" d="M 11.3063 1.74928L 10.6483 1.09127C 9.19432 -0.36267 6.82887 -0.364534 5.37493 1.09034L 1.09046 5.37481C -0.363486 6.82875 -0.363486 9.19328 1.09046 10.6472L 1.74939 11.3052C 2.45399 12.0108 3.38974 12.3985 4.38606 12.3985C 5.38145 12.3985 6.3172 12.0098 7.02087 11.3062L 9.04613 9.28275C 9.41055 8.91833 9.41055 8.32837 9.04613 7.96488C 8.68172 7.59953 8.09268 7.59953 7.72827 7.96488L 5.703 9.98735C 4.99933 10.692 3.7728 10.6929 3.06726 9.98735L 2.40833 9.32935C 1.68229 8.60145 1.68229 7.41965 2.40833 6.69268L 6.6928 2.40914C 7.3974 1.70454 8.62486 1.70454 9.32854 2.40914L 9.98747 3.06808C 10.3519 3.43249 10.9409 3.43249 11.3053 3.06808C 11.6698 2.70366 11.6698 2.11369 11.3063 1.74928Z"/>
<path id="path1_fill" d="M 9.82973 1.75126L 9.17079 1.09325C 8.46619 0.387718 7.53045 7.11071e-09 6.53412 7.11071e-09C 5.53873 7.11071e-09 4.60299 0.389582 3.89932 1.09232L 2.04647 2.9433C 1.68205 3.30772 1.68205 3.89769 2.04647 4.26117C 2.41089 4.62652 2.99992 4.62652 3.36434 4.26117L 5.21719 2.41205C 5.92086 1.70745 7.14739 1.70652 7.85292 2.41205L 8.51186 3.07006C 9.2379 3.79703 9.2379 4.97975 8.51186 5.70673L 4.22739 9.99026C 3.52278 10.6949 2.29532 10.6949 1.59165 9.99026C 1.22723 9.62585 0.637265 9.62585 0.27378 9.99026C -0.0906382 10.3547 -0.0915697 10.9437 0.272848 11.3081C 1.72679 12.7639 4.09224 12.7639 5.54525 11.3091L 9.82973 7.02459C 11.2837 5.57065 11.2837 3.2052 9.82973 1.75126Z"/>
</defs>
</svg>
