<svg width="17" height="24" viewBox="0 0 17 24" version="1.1" xmlns="http://www.w3.org/2000/svg" xmlns:xlink="http://www.w3.org/1999/xlink" xmlns:figma="http://www.figma.com/figma/ns"><title>Group</title><desc>Created using Figma</desc><g id="Canvas" transform="translate(-93 -476)" figma:type="canvas"><g id="Group" style="mix-blend-mode:normal;" figma:type="frame"><g id="share box.3.3.1" style="mix-blend-mode:normal;" figma:type="frame"><g id="Group" style="mix-blend-mode:normal;" figma:type="frame"><g id="Group" style="mix-blend-mode:normal;" figma:type="frame"><g id="Vector" style="mix-blend-mode:normal;" figma:type="vector"><use xlink:href="#path0_stroke" transform="translate(101.542 477.458)" fill="#909090" style="mix-blend-mode:normal;"/></g><g id="Vector" style="mix-blend-mode:normal;" figma:type="vector"><use xlink:href="#path1_stroke" transform="translate(97.4167 477.458)" fill="#909090" style="mix-blend-mode:normal;"/></g></g><g id="Vector" style="mix-blend-mode:normal;" figma:type="vector"><use xlink:href="#path2_stroke" transform="translate(94.2083 484.792)" fill="#909090" style="mix-blend-mode:normal;"/></g></g></g></g></g><defs><path id="path0_stroke" d="M -1 11.9167C -1 12.469 -0.552285 12.9167 0 12.9167C 0.552285 12.9167 1 12.469 1 11.9167L -1 11.9167ZM 1 0C 1 -0.552285 0.552285 -1 0 -1C -0.552285 -1 -1 -0.552285 -1 0L 1 0ZM 1 11.9167L 1 0L -1 0L -1 11.9167L 1 11.9167Z"/><path id="path1_stroke" d="M -0.707107 3.41789C -1.09763 3.80842 -1.09763 4.44158 -0.707107 4.83211C -0.316583 5.22263 0.316583 5.22263 0.707107 4.83211L -0.707107 3.41789ZM 4.125 0L 4.83211 -0.707107C 4.44158 -1.09763 3.80842 -1.09763 3.41789 -0.707107L 4.125 0ZM 7.54289 4.83211C 7.93342 5.22263 8.56658 5.22263 8.95711 4.83211C 9.34763 4.44158 9.34763 3.80842 8.95711 3.41789L 7.54289 4.83211ZM 0.707107 4.83211L 4.83211 0.707107L 3.41789 -0.707107L -0.707107 3.41789L 0.707107 4.83211ZM 3.41789 0.707107L 7.54289 4.83211L 8.95711 3.41789L 4.83211 -0.707107L 3.41789 0.707107Z"/><path id="path2_stroke" d="M 10.0833 -1C 9.53105 -1 9.08333 -0.552285 9.08333 0C 9.08333 0.552285 9.53105 1 10.0833 1L 10.0833 -1ZM 14.6667 0L 15.6667 0C 15.6667 -0.552285 15.219 -1 14.6667 -1L 14.6667 0ZM 14.6667 13.75L 14.6667 14.75C 15.219 14.75 15.6667 14.3023 15.6667 13.75L 14.6667 13.75ZM 0 13.75L -1 13.75C -1 14.3023 -0.552285 14.75 2.22045e-16 14.75L 0 13.75ZM 0 0L 0 -1C -0.552285 -1 -1 -0.552285 -1 2.22045e-16L 0 0ZM 4.58333 1C 5.13562 1 5.58333 0.552285 5.58333 0C 5.58333 -0.552285 5.13562 -1 4.58333 -1L 4.58333 1ZM 10.0833 1L 14.6667 1L 14.6667 -1L 10.0833 -1L 10.0833 1ZM 13.6667 0L 13.6667 13.75L 15.6667 13.75L 15.6667 0L 13.6667 0ZM 14.6667 12.75L 0 12.75L 0 14.75L 14.6667 14.75L 14.6667 12.75ZM 1 13.75L 1 0L -1 0L -1 13.75L 1 13.75ZM 0 1L 4.58333 1L 4.58333 -1L 0 -1L 0 1Z"/></defs></svg>
