<svg width="19" height="18" viewBox="0 0 19 18" version="1.1" xmlns="http://www.w3.org/2000/svg" xmlns:xlink="http://www.w3.org/1999/xlink" xmlns:figma="http://www.figma.com/figma/ns">
<g id="Canvas" transform="translate(-2070 -19472)" figma:type="canvas">
<g id="Filled Icons" style="mix-blend-mode:normal;" figma:type="frame">
<g id="Group" style="mix-blend-mode:normal;" figma:type="frame">
<g id="Vector" style="mix-blend-mode:normal;" figma:type="vector">
<use xlink:href="#path0_fill" transform="translate(2074.05 19475.5)" fill="#343434" fill-opacity="0.57" style="mix-blend-mode:normal;"/>
</g>
<g id="Vector" style="mix-blend-mode:normal;" figma:type="vector">
<use xlink:href="#path1_fill" transform="translate(2070.5 19472)" fill="#343434" fill-opacity="0.57" style="mix-blend-mode:normal;"/>
</g>
</g>
</g>
</g>
<defs>
<path id="path0_fill" d="M 7.87673 0.333697C 7.66188 0.118851 7.37466 1.36595e-07 7.06839 1.36595e-07C 6.76212 1.36595e-07 6.4749 0.118089 6.26005 0.333697L 0.334268 6.25948C -0.111423 6.70517 -0.111423 7.4297 0.334268 7.87615L 3.02822 10.5693C 3.45791 10.999 4.21521 10.999 4.64414 10.5693L 10.5699 4.64356C 11.0156 4.19787 11.0156 3.47334 10.5699 3.02765L 7.87673 0.333697ZM 2.49034 7.33675C 2.41568 7.41142 2.31816 7.44875 2.22064 7.44875C 2.12389 7.44875 2.02637 7.41142 1.95247 7.33675C 1.8039 7.18895 1.8039 6.94744 1.95247 6.79812L 6.80021 1.95037C 6.94878 1.80181 7.19029 1.80181 7.33885 1.95037C 7.48741 2.09894 7.48741 2.34045 7.33885 2.48901L 2.49034 7.33675ZM 7.60779 5.45114L 5.45324 7.60569C 5.37857 7.68036 5.28105 7.71693 5.18354 7.71693C 5.08602 7.71693 4.98774 7.67959 4.91384 7.60569C 4.76527 7.45713 4.76527 7.21562 4.91384 7.06705L 7.06839 4.9125C 7.21695 4.7647 7.45846 4.7647 7.60703 4.9125C 7.75559 5.06183 7.75559 5.30258 7.60779 5.45114Z"/>
<path id="path1_fill" d="M 17.8886 5.49323C 18.0371 5.34467 18.0371 5.10316 17.8886 4.9546L 13.0408 0.106852C 12.8976 -0.0356172 12.6447 -0.0356172 12.5022 0.106852C 12.1418 0.466452 11.6634 0.664536 11.1545 0.664536C 10.6455 0.664536 10.1671 0.46569 9.80748 0.106852C 9.66425 -0.0356172 9.41131 -0.0356172 9.26884 0.106852L 0.111994 9.26446C 0.0403788 9.33684 0 9.43283 0 9.5334C 0 9.63397 0.0403788 9.73149 0.111994 9.8031C 0.471594 10.1627 0.669679 10.6412 0.669679 11.1501C 0.669679 11.6598 0.470832 12.1375 0.111994 12.4978C 0.0403788 12.5687 0 12.6654 0 12.7668C 0 12.8681 0.0403788 12.9648 0.111994 13.0365L 4.9605 17.8842C 5.10906 18.0328 5.35057 18.0328 5.49914 17.8842C 5.85874 17.5238 6.33719 17.3265 6.84611 17.3265C 7.35428 17.3265 7.83273 17.5246 8.19233 17.8842C 8.26394 17.9558 8.3607 17.9954 8.46127 17.9954C 8.56259 17.9954 8.65935 17.9551 8.73097 17.8842L 17.8886 8.72659C 18.0371 8.57726 18.0371 8.33575 17.8886 8.18719C 17.1465 7.44513 17.1465 6.23529 17.8886 5.49323ZM 14.6567 8.72659L 8.73097 14.6516C 8.37213 15.0104 7.89368 15.207 7.38399 15.207C 6.87354 15.207 6.39585 15.0097 6.03701 14.6516L 3.34306 11.9577C 2.60024 11.2156 2.60024 10.0065 3.34306 9.26446L 9.26884 3.33868C 9.62692 2.97984 10.1054 2.78176 10.6158 2.78176C 11.1255 2.78176 11.604 2.97984 11.962 3.33868L 14.656 6.03263C 15.3996 6.77469 15.3996 7.98301 14.6567 8.72659Z"/>
</defs>
</svg>
