<svg width="18" height="18" viewBox="0 0 18 18" version="1.1" xmlns="http://www.w3.org/2000/svg" xmlns:xlink="http://www.w3.org/1999/xlink">
  <title>clock 2.3.3.1</title>
  <desc>Created using Figma</desc>
  <g id="Canvas" transform="translate(-6337 -62447)">
    <g id="clock 2.3.3.1">
      <g id="Filled Icons 1">
        <g id="Filled Icons">
          <g id="Vector">
            <use xlink:href="#path0_fill" transform="translate(6337 62447)" fill="#BDBDBD"/>
          </g>
        </g>
      </g>
    </g>
  </g>
  <defs>
    <path
      id="path0_fill"
      d="M 9 0C 4.03725 0 0 4.03725 0 9C 0 13.9628 4.03725 18 9 18C 13.9628 18 18 13.9628 18 9C 18 4.03725 13.9628 0 9 0ZM 13.4017 13.3785C 13.26 13.533 13.0215 13.5397 12.8715 13.4017L 8.3715 9.27675C 8.29425 9.2055 8.25 9.10575 8.25 9L 8.25 4.875C 8.25 4.668 8.418 4.5 8.625 4.5C 8.832 4.5 9 4.668 9 4.875L 9 8.835L 13.3785 12.8483C 13.5315 12.9885 13.5412 13.2262 13.4017 13.3785Z"/>
  </defs>
</svg>
