<?xml version="1.0" encoding="UTF-8"?>
<svg width="80px" height="84px" viewBox="0 0 80 84" version="1.1" xmlns="http://www.w3.org/2000/svg" xmlns:xlink="http://www.w3.org/1999/xlink">
    <!-- Generator: Sketch 43.2 (39069) - http://www.bohemiancoding.com/sketch -->
    <title>trash</title>
    <desc>Created with Sketch.</desc>
    <defs></defs>
    <g id="Page-1" stroke="none" stroke-width="1" fill="none" fill-rule="evenodd">
        <g id="trash" fill-rule="nonzero" fill="#000000">
            <path d="M75.286,12.194 L54.784,12.194 L54.784,7.005 C54.784,3.632 52.04,0.889 48.668,0.889 L31.332,0.889 C27.959,0.889 25.216,3.633 25.216,7.005 L25.216,12.194 L4.713,12.194 C2.63,12.194 0.935,13.889 0.935,15.972 L0.935,20.648 C0.935,22.731 2.63,24.426 4.713,24.426 L10.015,24.426 L14.888,79.497 C14.888,81.49 16.509,83.111 18.501,83.111 L61.497,83.111 C63.49,83.111 65.111,81.49 65.106,79.594 L69.983,24.426 L75.285,24.426 C77.368,24.426 79.063,22.731 79.063,20.648 L79.063,15.972 C79.064,13.889 77.369,12.194 75.286,12.194 Z M27.438,7.005 C27.438,4.858 29.185,3.111 31.332,3.111 L48.668,3.111 C50.815,3.111 52.562,4.858 52.562,7.005 L52.562,12.194 L27.438,12.194 L27.438,7.005 Z M62.89,79.497 C62.89,80.265 62.266,80.889 61.498,80.889 L18.502,80.889 C17.735,80.889 17.111,80.265 17.107,79.4 L12.247,24.427 L67.754,24.427 L62.89,79.497 Z M76.842,20.648 C76.842,21.505 76.145,22.203 75.286,22.203 L4.713,22.203 C3.856,22.203 3.158,21.505 3.158,20.648 L3.158,15.972 C3.158,15.115 3.856,14.417 4.713,14.417 L25.215,14.417 L54.783,14.417 L75.285,14.417 C76.143,14.417 76.841,15.115 76.841,15.972 L76.841,20.648 L76.842,20.648 Z" id="Shape"></path>
            <g id="Group" transform="translate(26.000000, 33.000000)">
                <rect id="Rectangle-path" x="0.266" y="0.662" width="2.223" height="36.68"></rect>
                <rect id="Rectangle-path" x="13.014" y="0.662" width="2.223" height="36.675"></rect>
                <rect id="Rectangle-path" x="25.513" y="0.662" width="2.222" height="36.675"></rect>
            </g>
        </g>
    </g>
</svg>
